<svg xmlns="http://www.w3.org/2000/svg" viewBox="0 0 94.81 107.31"><defs><style>.cls-1{fill:#755445;}</style></defs><title>Asset 5</title><g id="Layer_2" data-name="Layer 2"><g id="_1" data-name="1"><path class="cls-1" d="M2.37,43.54a11.28,11.28,0,0,0,11.81,5,46.1,46.1,0,0,0,2.76,3.92c-4.31.76-10,2-12.4,6S5,65.33,8.46,66.87s6.78,2.69,10.06,4.53,6.71,4.07,10.25,5.77c5.34,2.57,11.14,4.23,17,2.67a.46.46,0,0,0,.32-.52.41.41,0,0,0,.19,0,10.32,10.32,0,0,0-.24,3.82c.51,4,2.49,8.35,5.77,10.87-5.36-.24-6.19,8.28-2.79,11.49s14,2.17,13.3-4c5.14.63,11.19-1.92,13.79-6.62,3.44,4.25,9.89-.63,11.13-4.73a6,6,0,0,0-2-6.65c-1.3-1.07-5-2.88-6.55-1.62a.66.66,0,0,0-.25.46c-.84-5.06-2.72-9.92-7.35-12.73-.13-.09-.27-.15-.41-.23,5.67-4.74,7.65-12.22,12.1-18,3.67-4.75,11.71-9.47,12-16,.23-4.82-4.31-7.19-8.62-7.19-5.36,0-10.5,3.07-13.87,7.16a46.17,46.17,0,0,0-1.62-7.25c3.32,0,6.64-.42,8.77-2.77C88.6,16.45,65.72-8.56,52.06,3a7.57,7.57,0,0,0-2.94,6.25c-9.53-4.35-21.5,2.32-27.91,9.46-3.89-5-10.68-4.34-15.59.5C-.24,25-1.85,36.37,2.37,43.54ZM14.75,54.33a14.27,14.27,0,0,0-3.67,12.26c-.68-.32-1.35-.65-2-1C-.17,60.33,8.87,56.09,14.75,54.33Zm5.14,16.2A80.56,80.56,0,0,0,12.06,67a.45.45,0,0,0,.07-.29,14,14,0,0,1,5.46-13.12l.23,0A48.22,48.22,0,0,0,23,58.92c2.88,2.57,6.45,5.79,10.41,6.25a.53.53,0,0,0,.21-1c-5.8-1.32-11.05-6.75-15.06-11.91,2.62,0,3.82-2.43,4.78-4.8C26.24,54,31.23,63,38.25,65.1a24.33,24.33,0,0,0,7.28,13.77C35.71,80.06,28.06,75.19,19.89,70.53ZM79.65,86.79a.31.31,0,0,0,0-.1c.28-.89,1.64.31,1.91.64a2.66,2.66,0,0,1,.6,2.11,1.91,1.91,0,0,1-2.93,1.17h0A7.79,7.79,0,0,0,79.65,86.79Zm-1.18-4.24,0,.1,0,0,0-.19A.13.13,0,0,0,78.47,82.55ZM72.38,72.39c4,3.72,5,9.52,5.53,14.67a.51.51,0,0,0,.51.47c0,1-.14,2-.19,3a.43.43,0,0,0,.35.44.54.54,0,0,0,.14.48c1.89,2,5-.42,4.78-2.72a4.29,4.29,0,0,0-2.08-3.24,2.28,2.28,0,0,0-2.31-.05.65.65,0,0,0-.28,0c0-.47-.09-.93-.15-1.4a8.05,8.05,0,0,0,1.5-.62,2.52,2.52,0,0,1,.47-.13c1,.4,2.44.73,2.74.91a4.67,4.67,0,0,1,2,6c-1.49,3.57-5.41,5.93-8.7,3.05a.69.69,0,0,0-.25-.14.52.52,0,0,0-.8,0A20.22,20.22,0,0,1,70.26,98a11,11,0,0,1-7.94,1.84.88.88,0,0,0-1,1,.67.67,0,0,0-.38.46c-1,3.94-6.49,5.45-9.93,3.52-4-2.25-3.28-9.67,1.83-9.63a.43.43,0,0,0,.39-.23,11,11,0,0,0,1.87.77c.71.2,1-.87.41-1.19a15.12,15.12,0,0,1-8-12.22c-.35-5.88,5.65-10.78,10.74-12.5C63,68.24,68.62,68.91,72.38,72.39ZM90.19,30.73c3.32,2.31,3.32,5.67,1.27,8.72A22.54,22.54,0,0,1,88.36,43c-.16-6.07-6.09-11-12-9.21a16,16,0,0,1,9.27-3.84C86.91,29.87,89.1,30,90.19,30.73Zm-17.6,7a21.89,21.89,0,0,1,2-2.4.59.59,0,0,0,.63.19c6.19-2,12.18,1.46,12.07,8.42v0c-.48.46-.95.92-1.4,1.4a50.91,50.91,0,0,0-7.69,10C75.58,60.06,73.7,65,69.73,68.9l-.07,0c.38-2.64-.4-4.76-1.77-7.11-.89-1.51-2.67-3.26-3.1-5.12.75-.67,1.48-1.36,2.18-2.1.5-.53-.35-1.25-.85-.73s-.88.86-1.32,1.27c.33-1.45,1.44-3,1.85-4.47A22.32,22.32,0,0,0,64.5,33.85c2.26.67,4.59.82,6.21-.85a37.9,37.9,0,0,1,.51,3.92.88.88,0,0,0,0,.6A26,26,0,0,1,68.2,52.13c-.4.73.76,1.29,1.17.57a26,26,0,0,0,3.18-14.92ZM55.78,2.43c5.8-2.17,12.67.21,17.07,4.18,3.4,3.07,8.71,11,6.85,16.09a.63.63,0,0,0-.2.25C77.39,27.44,71,27.23,67,26.38c-3.4-.71-6-2.7-8.72-4.89A24,24,0,0,1,52,14.34C49.65,9.89,50.51,4.4,55.78,2.43Zm-6.53,8.08c.85,4.83,5.39,9.77,8.85,12.47,3.63,2.84,6.92,4.94,11.51,5.13a.49.49,0,0,0,0,.12q.42,1.51.75,3-3.75,2.64-7.36.41a.79.79,0,0,0-1,1.15,21.19,21.19,0,0,1,.69,23.06.73.73,0,0,0,0,.73.83.83,0,0,1,.08.12,33.66,33.66,0,0,1-20.5,7.14c-.76,0-.67,1.16.07,1.17A32.53,32.53,0,0,0,63.52,57.7c2.29,3.18,5.19,6.76,5,10.71A16.93,16.93,0,0,0,54.8,69.67c-3.59,1.93-6.94,5-8.25,8.76,0,0,0,0,0,0a26.58,26.58,0,0,1-7-13.39A.7.7,0,0,0,39.17,64C31.83,62.23,26.68,51.62,24,45.39c-.22-.5-1.05-.7-1.29-.09-.77,2-1.84,5.81-4.72,5.67a.59.59,0,0,0-.3.09c-.76-1-1.48-2-2.13-3,.11,0,.21-.1.32-.15a.49.49,0,0,0,.75,0l.62-.78A7.9,7.9,0,0,0,20,43.3a.58.58,0,0,0,0-.22c3.94-6.5,5.91-14.19,2.82-21.57A12.58,12.58,0,0,0,22,19.79C28.6,12.58,39.41,6.67,49.25,10.51ZM8.93,18.27C12.7,15.83,18,16,20.6,20a17.79,17.79,0,0,1,2.31,10.2,26.25,26.25,0,0,1-3.84,12.18.52.52,0,0,0-.26.3c0,.15-.13.29-.19.43-.41.67-.84,1.33-1.29,2-2.71,2.81-7.59,2.92-10.94.66S1.81,39.25,1.58,35.32C1.21,28.86,3.23,22,8.93,18.27Z"/><path class="cls-1" d="M72.48,89.48a.8.8,0,0,0,1.12-.83,1.48,1.48,0,0,0,0-.73.55.55,0,0,0-.52-.48,11.72,11.72,0,0,0-.85-1A1.22,1.22,0,1,0,70.44,88,6.29,6.29,0,0,0,72.48,89.48Z"/><path class="cls-1" d="M62,94.23a2.88,2.88,0,0,0-.47-1.5c-.21-.4-.36-.83-.53-1.25-.27-1.19-2.38-.79-2.14.42,0,.11.06.19.08.29h0a.93.93,0,0,0,.05.1,6.71,6.71,0,0,0,.58,1.56A2.22,2.22,0,0,0,61,95.08C61.53,95.24,62,94.71,62,94.23Z"/><path class="cls-1" d="M61.88,74.05a4.31,4.31,0,0,0-2.79,2.3,4,4,0,0,0-4.26.67c-1.41,1.26-2,3.76-.52,5.19a.65.65,0,0,0,1.07-.53c-.14-1.18-.38-2.45.58-3.39A2.93,2.93,0,0,1,59.39,78a5.23,5.23,0,0,0,.83,2,11.2,11.2,0,0,0,.83,1.42,4,4,0,0,0-.8.84c-.67.94-2.14,3.28-1.7,4.45,1.37,3.62,8.4-2.14,9.62-3.24a.57.57,0,0,0-.17-.88c-1.37-.54-2.72-1.1-4.11-1.57a.37.37,0,0,0-.23,0,2.32,2.32,0,0,0-1.41-.16,11.65,11.65,0,0,0-.62-1.55,5.32,5.32,0,0,0-1.09-1.89.54.54,0,0,0,0-.22C60.31,76,62.12,75.4,63,75.34a5.2,5.2,0,0,1,2.79,1,.51.51,0,0,0,.71-.62C65.83,74,63.46,73.63,61.88,74.05Zm1.55,8.14a.54.54,0,0,0,.53,0c.89.4,1.8.77,2.71,1.13a17.19,17.19,0,0,1-4.77,2.93c-.3.11-1,.46-1.28.36-.76-.26-.44-1.21-.34-1.66C60.56,83.71,61.86,81.53,63.43,82.19Z"/><path class="cls-1" d="M73.91,92.46a4.11,4.11,0,0,0,1.79-3.69.55.55,0,0,0-1.1.06,3.15,3.15,0,0,1-1.29,2.74C72.75,92,73.34,92.86,73.91,92.46Z"/><path class="cls-1" d="M64.28,97.16a10.22,10.22,0,0,1-3-.72c-.65-.25-1.13.67-.48,1a9.22,9.22,0,0,0,3.39.82C64.81,98.28,64.89,97.21,64.28,97.16Z"/><path class="cls-1" d="M58.81,99.4a.56.56,0,0,0-.38-.52,10.17,10.17,0,0,1-2.09-1A9.27,9.27,0,0,1,55.19,97a.66.66,0,0,0-.57-.89,3.9,3.9,0,0,0-3.89,3.44,4.2,4.2,0,0,0,2.51,4.34,5.3,5.3,0,0,0,5.25-.41A2.67,2.67,0,0,0,58.81,99.4Zm-2.68,3.69a4.21,4.21,0,0,1-2.91-.7,2.75,2.75,0,0,1-1.09-3.12,2.65,2.65,0,0,1,1.79-1.76,7.36,7.36,0,0,0,3.88,2.28.49.49,0,0,0,.17.31C59.54,101.46,57.42,102.93,56.13,103.09Z"/><path class="cls-1" d="M61.56,22.34c3.23,2.14,10.6,4.07,14,1a.49.49,0,0,0,.61-.25,9.1,9.1,0,0,0,.56-1.3.43.43,0,0,1,0-.07.59.59,0,0,0,.06-.28c1.77-5.71-2.74-11.21-7.2-14.66C66.2,4.12,57.25,1.54,54.06,5.94,49.75,11.91,57,19.33,61.56,22.34Zm-3.31-17c8-2.43,19.81,7.58,17.56,15.91l0,0c-3,4.76-11.29,1.79-14.63-.78C57.23,17.43,48.94,8.11,58.25,5.29Z"/><path class="cls-1" d="M16.24,42.22a.57.57,0,0,0,0-.68C19.46,37,21.47,30.37,19.9,25c-1.4-4.75-7.1-7-10.87-3.28C4.81,25.88,3.06,34.66,5.58,40,7.52,44.12,13.1,46.52,16.24,42.22ZM5.71,32.65c.45-3.81,2.14-8.83,5.6-10.62,7.29-3.78,8.26,5.75,7.41,10.45a20.73,20.73,0,0,1-4.32,9.7.55.55,0,0,0-.11.28c-3,2.16-6.38-.41-7.86-3.42A11.87,11.87,0,0,1,5.71,32.65Z"/><path class="cls-1" d="M46.17,62.39a36.13,36.13,0,0,0,8.44-2.52c.65-.28.29-1.34-.36-1a35.18,35.18,0,0,1-8.14,2.5C45.43,61.44,45.49,62.51,46.17,62.39Z"/></g></g></svg>