<svg xmlns="http://www.w3.org/2000/svg" viewBox="0 0 113.2 119.66"><defs><style>.cls-1{fill:#b8cfac;}</style></defs><title>Asset 1</title><g id="Layer_2" data-name="Layer 2"><g id="_1" data-name="1"><path class="cls-1" d="M55.05,5.29c-1,7.31,7.49,10.19,13.36,9.4,6.21-.84,9.94-6.89,9.16-12.91-.12-1-1.51-.64-1.45.28C76.42,7,74,12.18,68.78,13.17c-5.48,1-12.69-1.33-13-7.82a.37.37,0,0,0-.74-.06Z"/><path class="cls-1" d="M55,5c-2.21.14-4.42,1.49-6.38,2.45-1.25.62-3.58,1.28-4.37,2.5a4.49,4.49,0,0,0-.35,2,9.52,9.52,0,0,1-1,3.36,9.75,9.75,0,0,1-1.74,2.35,17.87,17.87,0,0,0-2,1.79.45.45,0,0,0,.46.69c2.91-.45,5-4.68,5.48-7.25.18-1,0-1.89.81-2.57a16.58,16.58,0,0,1,3.29-1.72c1.95-1,4.37-1.75,6-3.25A.18.18,0,0,0,55,5Z"/><path class="cls-1" d="M39.19,20.2c.33,4.62,5.45,9.63,10.09,9.77a.47.47,0,0,0,.19-.9c-2.12-1.06-4.23-1.91-6-3.57A23.48,23.48,0,0,1,39.68,20a.26.26,0,0,0-.49.16Z"/><path class="cls-1" d="M93,11.41c-.09-.51-.06-1.57-.4-1.93a1.77,1.77,0,0,1-.12-.17q-.32-.36-.6-.75c-1.4-2-1.87-4.4-3.16-6.4A4.19,4.19,0,0,0,85,0a33,33,0,0,0-7.92,1.05c-.29.08-.3.6,0,.6,2.44,0,4.85-.47,7.28-.55C87.81,1,88.13,4,89.3,6.75a16.58,16.58,0,0,0,3.85,5.52Z"/><path class="cls-1" d="M92.91,10.09a40.93,40.93,0,0,1-3.54,6.75,20.8,20.8,0,0,1-2.1,2.49c-.81.82-1.43,1.1-1.74,2.17A.41.41,0,0,0,86,22c2-.22,3.83-3.17,4.88-4.75a16.48,16.48,0,0,0,2.83-6.9.41.41,0,0,0-.77-.24Z"/><path class="cls-1" d="M90,18a72.75,72.75,0,0,0-2.21,20.16c.07,5.5,1.7,12.22,5.92,16,.42.38,1.14,0,.86-.57-1.37-2.79-3.06-5.34-4-8.34a28.24,28.24,0,0,1-1.2-8.32c-.06-6.33.59-12.56,1.12-18.85,0-.28-.42-.39-.5-.11Z"/><path class="cls-1" d="M49.75,26.39c2,5.78,4.61,11.31,6.93,17a28.35,28.35,0,0,1,2.14,8.48,39.88,39.88,0,0,1-.43,7.56c0,.46.67.76.9.31,2.34-4.61,1.43-10.49-.39-15.12a160.26,160.26,0,0,0-8.68-18.42.26.26,0,0,0-.47.23Z"/><path class="cls-1" d="M51.3,29.43c-.83-.3-1.71-.37-2.56-.64s-1.67-.57-2.49-.9a.36.36,0,0,0-.38.57c1.32,1.29,3.52,2.27,5.37,1.72a.39.39,0,0,0,.06-.75Z"/><path class="cls-1" d="M59.54,54.19c-2.6,9.89-2.33,20.79-1.26,30.88a129.78,129.78,0,0,0,2.65,15.3c1.1,4.88,1.58,9.32.28,14.2-.11.43.46.77.72.37,2.36-3.6,1.7-8.35.91-12.33-1-5.07-2.21-10-2.87-15.18A117.13,117.13,0,0,1,59,70.79c.07-5.52.69-11,1-16.5,0-.26-.39-.37-.46-.1Z"/><path class="cls-1" d="M90.91,49.1c4.58,10,9.25,19.7,12.34,30.27a144.62,144.62,0,0,1,3.67,15.69c.77,4.32,1.23,9.89,4.48,13.18a.49.49,0,0,0,.81-.54,38.63,38.63,0,0,1-2.82-7.34c-.59-2.49-.94-5-1.42-7.56a142.29,142.29,0,0,0-3.92-15.63c-3.06-9.8-7-19.8-12.73-28.35-.16-.24-.53,0-.41.28Z"/><path class="cls-1" d="M62.13,112.12c-.76,1.75-1.62,3.45-2.33,5.22a.65.65,0,0,0,.12.64,3.29,3.29,0,0,0,2.4,1.34,4.55,4.55,0,0,0,1.27-.2,4.61,4.61,0,0,1,2.63,0,15.51,15.51,0,0,0,7.86,0,37.81,37.81,0,0,1,4.17-1.54,14.73,14.73,0,0,1,5-.19c2.2.31,4.07,1.55,5.62-.6.29-.41.49-.88.81-1.26.85-1,1.7-.7,2.79-.39a5.1,5.1,0,0,0,3.06.24,8.66,8.66,0,0,0,2.62-1.65c1.54-1.19,2.61-1.18,4.47-.83a4.52,4.52,0,0,0,2.77,0c.52-.24.78-.76,1.24-1,1.07-.58.9,0,1.51.44,1.95,1.56,3.9-2,4.93-3.18.22-.24,0-.6-.23-.71a4.44,4.44,0,0,1-2-1.69c-.24-.35-.78,0-.61.41a4.23,4.23,0,0,0,2.26,2.18l-.15-.81a17.46,17.46,0,0,1-2,2,1.37,1.37,0,0,1-1.72.6,2.79,2.79,0,0,0-.51-.52,1.52,1.52,0,0,0-1.45-.27c-.52.18-.79.64-1.2,1-1.08.85-1.87.58-3.09.32a6.21,6.21,0,0,0-2.81-.13,7.26,7.26,0,0,0-2.29,1.27c-1.56,1.15-2.45,1.72-4.42,1.15-1.8-.51-3.2-.61-4.4,1.06a9.55,9.55,0,0,1-.81,1.25c-1,1-1.91.36-3,.11a15.29,15.29,0,0,0-3.63-.38,16,16,0,0,0-4.19.63c-1.2.36-2.3,1.08-3.5,1.4a16.6,16.6,0,0,1-4.57.16c-1.4-.06-2.8-.85-4.16-.79-1.07,0-3.07,1.49-3.44-.25a8.9,8.9,0,0,1,.76-2.42c.23-.82.46-1.63.72-2.44a.3.3,0,0,0-.56-.19Z"/><path class="cls-1" d="M59.16,48.38c2,1.38,4.5,1.46,6.83,1.52a37.63,37.63,0,0,0,8.4-.68,39.89,39.89,0,0,0,7.77-2.39c2.42-1,5.42-2.32,7.29-4.22a.58.58,0,0,0-.64-1c-2.21,1-4.18,2.54-6.42,3.56a39.17,39.17,0,0,1-7.66,2.56C70,48.83,64,49.63,59.35,48a.21.21,0,0,0-.19.37Z"/><path class="cls-1" d="M60.06,52.15c1.76,1.72,4.52,2,6.87,2.21a26.86,26.86,0,0,0,8-.51A29.17,29.17,0,0,0,89.51,46c.63-.62-.27-1.66-.9-1a28,28,0,0,1-13.33,7.47c-4.62,1.1-10.57,1.52-15-.63-.22-.11-.43.22-.26.39Z"/><path class="cls-1" d="M70.52,26.46a2.55,2.55,0,0,0-3.07,3A3,3,0,0,0,72,31.11a3,3,0,0,0-.11-5c-1.74-1.12-4.36-.05-4.35,2.13a.41.41,0,0,0,.78.17c.51-1,1.72-1.9,2.84-1.22A1.73,1.73,0,0,1,71.33,30a1.76,1.76,0,0,1-2.68-.74,1.91,1.91,0,0,1,1.78-2.42c.21,0,.32-.33.09-.39Z"/><path class="cls-1" d="M69.77,26.29c-.2-1.8-.87-4.34.87-5.62,2.82-2.07,4.57,3.8,1.72,4.83l.67,1a7.65,7.65,0,0,1,4.1-2.22c1.82-.14,2.56,1.82,2.47,3.38a3.5,3.5,0,0,1-6.07,2.17c-.22.31-.43.63-.65,1,2.52.74,4,4.12,1.4,5.78a2.51,2.51,0,0,1-3.56-3.4l-1.27-.26c.94,2.84-3.28,3.53-4.84,2.05a3.27,3.27,0,0,1-1-2.34c0-1.13.94-3.07,2.41-1.86.14-.4.28-.8.41-1.19-1.76-.15-2.88-2-3-3.63s.9-2.9,2.58-2.3A4.24,4.24,0,0,1,68,26a.64.64,0,0,0,1.15-.57,4.89,4.89,0,0,0-3.49-3.2,3.08,3.08,0,0,0-3.42,1.89c-1.07,2.75,1.09,6.51,4,6.76a.66.66,0,0,0,.42-1.19,2.56,2.56,0,0,0-3.87.79,4.48,4.48,0,0,0,.37,4.91c2.26,3,8.94,1.6,7.61-2.74a.71.71,0,0,0-1.27-.25c-2.06,3.17,1.31,7.34,4.82,5.63,4-1.91,2.75-7.22-1.1-8.35a.6.6,0,0,0-.65.95A4.71,4.71,0,0,0,80.77,28c.17-1.68-.54-4.05-2.24-4.78-2-.86-4.88,1.1-6.3,2.39a.61.61,0,0,0,.67,1c3.1-1.1,2.81-7.09-.55-7.62a3.6,3.6,0,0,0-3.49,2c-.9,1.72-.37,3.81.32,5.5.14.35.62.13.59-.19Z"/><path class="cls-1" d="M63.4,110.53c-1,.63-.7,2,.16,2.67,1.65,1.32,4.47-.15,6.35,0,2.14.24,4.27,1.07,6.44.58,2.75-.63,4.25-3.22,7.31-3,2.51.16,4.83,1.47,7.39.9a4.67,4.67,0,0,0,2.39-1.33c.75-.73,1.11-1.42,2.31-1.47a7.46,7.46,0,0,1,1.41.18,5.54,5.54,0,0,0,2.56.09,4.67,4.67,0,0,0,1.09-.62c.72-.42.84-.29,1.56-.2,2.41.3,5.19-1.59,7.34-2.52.69-.31.17-1.35-.52-1l-3.3,1.44c-.49.22-1,.45-1.49.65-1.2.48-1.59,0-2.73,0a2.11,2.11,0,0,0-1.24.43c-.67.42-1,.79-1.79.8a8,8,0,0,1-1.39-.21c-1.38-.23-2.62-.33-3.73.66s-1.53,1.8-3,2a10.16,10.16,0,0,1-4.06-.45,9.75,9.75,0,0,0-5.16-.31c-1.92.58-3.24,2.35-5.2,2.83S72,112.33,70,112.1a9,9,0,0,0-2.26,0c-1.19.18-4.8,1.35-4.08-1.36,0-.14-.11-.31-.26-.23Z"/><path class="cls-1" d="M9.89,48.88c1.83-3.5,3.09-7,7.05-8.6a14.06,14.06,0,0,1,11.3.75,22.84,22.84,0,0,1,5,3.28,7.64,7.64,0,0,1,2.67,5,21,21,0,0,1-1.62,12c-.46,1,1.11,1.76,1.53.75A23.57,23.57,0,0,0,37.3,48.14c-.92-4.24-5-6.79-8.75-8.46s-8.31-2.26-12.26-.47-5.68,5.42-7,9.48c-.11.35.43.49.58.19Z"/><path class="cls-1" d="M9.84,47.83C8.57,49,6.4,47.46,5.09,47a4.68,4.68,0,0,0-3-.21c-1.64.52-3,2.73-1.32,4a.61.61,0,0,0,.9-.79C.5,48.13,3.12,47.92,4,48.09a8.77,8.77,0,0,1,1.65.59,10.63,10.63,0,0,0,2.75,1c1,.12,2.3-.64,1.8-1.77a.2.2,0,0,0-.34-.06Z"/><path class="cls-1" d="M35.1,61.19h0a.49.49,0,0,0-.41.38c-.24,1.52,1.49,2.17,2.52,2.8s1.7,1.67.45,2.43c-.62.38-1.3.24-1.72.88a.42.42,0,0,0,0,.43c.57.83,1.8.33,2.49-.12a2.51,2.51,0,0,0,1.29-2.59A3.83,3.83,0,0,0,37.41,63a4.88,4.88,0,0,1-1.73-1.23c-.13-.18-.28-.58-.58-.53Z"/><path class="cls-1" d="M35.3,61.28c-1.62-1.39-3.82-2.16-5.72-3.08l-6.71-3.26c-4.34-2.09-8.66-4.53-13.21-6.13a.41.41,0,0,0-.36.73c4.07,2.59,8.66,4.47,13,6.58l6.39,3.1c2,1,4.1,2.31,6.29,2.74a.4.4,0,0,0,.33-.68Z"/><path class="cls-1" d="M35.79,57.91c-1.36-1.52-3.8-2.27-5.61-3.16l-6-2.92a131.72,131.72,0,0,0-12.51-5.72.38.38,0,0,0-.33.68,131.88,131.88,0,0,0,12.24,6.28c2,1,4,2,6,2.92,1.81.87,3.93,2.34,6,2.45a.31.31,0,0,0,.26-.53Z"/><path class="cls-1" d="M37.31,56.84a1.11,1.11,0,0,1,1.22-.68,1.32,1.32,0,0,1,.81,1.5c-.16,1.14-1.71,1.49-2.69,1.28-.3-.06-.6.33-.39.58.73.86,1.9.57,2.81.13a2.29,2.29,0,0,0,1.17-2.56,2,2,0,0,0-1.72-1.77,1.67,1.67,0,0,0-1.71,1.36.27.27,0,0,0,.5.16Z"/><path class="cls-1" d="M37.64,55.05a4.11,4.11,0,0,1,2.28-3.3c.44-.18,1.15-.22,1.41.33a2.26,2.26,0,0,1-.17,1.33A8.08,8.08,0,0,1,40,55.25a.32.32,0,0,0,.41.47c1.45-.79,3-4.33.61-4.93-2.13-.52-4.15,2.34-3.81,4.23,0,.23.41.3.44,0Z"/><path class="cls-1" d="M40.64,55.51a3,3,0,0,1,2.13-.85c1.22,0,1.73,1,1.63,2-.15,1.61-1.79,2.26-3.21,2a.31.31,0,0,0-.19.58,3,3,0,0,0,4.27-3.38c-.23-1-.93-2-2-2a3.63,3.63,0,0,0-2.94,1.38c-.14.2.19.4.35.23Z"/><path class="cls-1" d="M42.07,59.43a1.88,1.88,0,0,1,2.38,1c.4,1.31-.9,1.87-1.94,1.7a4.89,4.89,0,0,1-3.32-2.3.31.31,0,0,0-.54.27c.82,2,4.2,4.47,6.17,2.37a2.27,2.27,0,0,0,0-2.92A2.45,2.45,0,0,0,41.93,59a.22.22,0,0,0,.14.41Z"/><path class="cls-1" d="M39.63,61.76a1,1,0,0,1-.6,1.53A2.3,2.3,0,0,1,37.14,63c-.33-.19-.66.32-.37.55a2.44,2.44,0,0,0,3,.32A1.58,1.58,0,0,0,40,61.46a.23.23,0,0,0-.34.3Z"/><path class="cls-1" d="M1.16,51.28c4.94,3.54,10.5,5.63,16.23,7.46C24,60.87,29.48,64.61,35.52,68a.69.69,0,0,0,.7-1.2C31.41,63.68,26.4,60.43,21,58.44c-6.69-2.47-13-4.6-19.35-8a.5.5,0,0,0-.5.86Z"/></g></g></svg>