<svg xmlns="http://www.w3.org/2000/svg" viewBox="0 0 195.44 95.89"><defs><style>.cls-1{fill:#8b5b36;}</style></defs><title>Asset 4</title><g id="Layer_2" data-name="Layer 2"><g id="_1" data-name="1"><path class="cls-1" d="M73.09,46.13c-.64,3.67-.4,7.57-.46,11.3-.06,4-.08,8.11-.11,12.17-.07,8.12-.11,16.24-.17,24.36a.67.67,0,0,0,1.33,0q.09-12.18.17-24.36c0-4.06.05-8.12,0-12.18,0-3.72.29-7.63-.3-11.31,0-.25-.46-.27-.5,0Z"/><path class="cls-1" d="M64.93,50.37c2,.51,4.73-1.51,4.41-3.67-.06-.45-.69-.38-.82,0a4.43,4.43,0,0,1-1.13,2.12,3.75,3.75,0,0,1-2.35.84c-.39,0-.55.62-.11.73Z"/><path class="cls-1" d="M77.91,46c-.62.93.13,2.41.83,3.09a3.64,3.64,0,0,0,3.34.94c.62-.16.36-1-.24-.94a2.83,2.83,0,0,1-2.56-.83c-.61-.69-.53-1.49-.88-2.25a.29.29,0,0,0-.49,0Z"/><path class="cls-1" d="M64.7,89.23a9.61,9.61,0,0,1,1.79,1.52,3.74,3.74,0,0,1,.61,2.46c0,.69,1,.69,1.06,0,.2-1.73-1.25-4.66-3.33-4.42a.26.26,0,0,0-.13.42Z"/><path class="cls-1" d="M81.32,89.07A3.41,3.41,0,0,0,78.53,91a5.09,5.09,0,0,0-.59,3.2.54.54,0,0,0,.73.35c.34-.2.19-.9.18-1.22a3.38,3.38,0,0,1,.89-2.4,3.91,3.91,0,0,1,1.06-.79c.33-.21.76-.51.73-1a.07.07,0,0,0,0,0,.1.1,0,0,0-.07,0Z"/><path class="cls-1" d="M74.81,47.62c0,.16-.08.33-.09.49s0,.39,0,.59c0,.41-.09.82-.14,1.22a.35.35,0,0,0,.65.19,2.87,2.87,0,0,0,.37-1.31,3.12,3.12,0,0,0,0-.61,3.48,3.48,0,0,0-.24-.62c-.08-.25-.49-.23-.48,0Z"/><path class="cls-1" d="M74.6,52.22a13.89,13.89,0,0,1-.13,3.09.33.33,0,0,0,.64.19,4.94,4.94,0,0,0,0-3.35c-.11-.26-.57-.28-.55.07Z"/><path class="cls-1" d="M74.65,57.79a9.62,9.62,0,0,0-.12,3,.32.32,0,0,0,.62,0,9.61,9.61,0,0,0,0-3,.27.27,0,0,0-.52,0Z"/><path class="cls-1" d="M74.88,62.91a10.38,10.38,0,0,0-.11,2.89.32.32,0,0,0,.63,0,10.43,10.43,0,0,0,0-2.9c0-.26-.48-.27-.53,0Z"/><path class="cls-1" d="M74.88,68.27A17.35,17.35,0,0,0,75,71.8c0,.4.63.44.63,0a17.42,17.42,0,0,0-.18-3.61c-.06-.33-.52-.23-.56.06Z"/><path class="cls-1" d="M75,73.92a19.21,19.21,0,0,0-.08,4.67c.07.43.64.28.7-.08a19,19,0,0,0,0-4.58.29.29,0,0,0-.57,0Z"/><path class="cls-1" d="M74.85,80.54a17.82,17.82,0,0,0-.15,4.13.32.32,0,0,0,.64,0,18.4,18.4,0,0,0,0-4.13c0-.26-.49-.27-.53,0Z"/><path class="cls-1" d="M74.72,86.53A14,14,0,0,0,74.6,90a.31.31,0,0,0,.61,0,14,14,0,0,0,0-3.42.27.27,0,0,0-.52,0Z"/><path class="cls-1" d="M74.65,92c.09.64,0,1.25,0,1.88a.31.31,0,0,0,.61.1,3.32,3.32,0,0,0-.11-2.11.27.27,0,0,0-.52.13Z"/><path class="cls-1" d="M71,45.89a10.1,10.1,0,0,0,.4-2.26c0-.24,0-.48.08-.72s.06-.41.39-.28a5,5,0,0,1,1.28,0,7.91,7.91,0,0,1,1.29,0c.56.1.79.12.75.73a12.46,12.46,0,0,0,0,2.59.55.55,0,0,0,1,0,10.18,10.18,0,0,0,.13-2.21,3.44,3.44,0,0,0-.17-1.49c-.47-1-1.92-.72-2.8-.74s-2.33-.4-2.76.47a4.36,4.36,0,0,0-.2,1.53,9.49,9.49,0,0,0,0,2.26c0,.35.54.3.63,0Z"/><path class="cls-1" d="M82.45,94.6a4.7,4.7,0,0,0,0-.67c-.1-2.2,0-4.37.11-6.56.15-3.41.29-6.81.39-10.23.17-5.71.23-11.44.17-17.16,0-2.78-.08-5.56-.16-8.35,0-1.51.43-4.15-.77-5.37s-3.61-.86-5-.89a35.8,35.8,0,0,0-6.14.4,20.8,20.8,0,0,0-4.89-.23c-1.2.13-1.65.6-1.95,1.79-1.16,4.54-.77,9.92-.72,14.57.1,9.28,1,18.79-.32,28-.22,1.58-.4,3.16-.58,4.74a1,1,0,0,0,.25.87c.44.35,1.45.26,2,.26.73,0,1.45,0,2.18,0,2.93.06,5.87.08,8.8.1l4.4,0C81.18,95.89,82.31,95.74,82.45,94.6ZM65.12,67.35c-.12-4.51-.21-9,0-13.53.09-1.63-.26-6.08,1.34-7,.67-.38,2.83,0,3.63,0,1.22,0,2.42-.09,3.64-.19a.28.28,0,0,0,.2-.1c.94,0,1.88,0,2.82,0,1.64,0,4-.18,4.86,1.79a9.5,9.5,0,0,1,.08,2.78q.18,7.19.14,14.38c0,9.34.11,19-1.11,28.27a.78.78,0,0,0,0,.22c-5.35-.17-10.85-.69-16.2-.35h-.37s0,0,0-.07C65.64,84.89,65.35,76.12,65.12,67.35Z"/><path class="cls-1" d="M45.06,49.18c-4.75-2.92-9.35-6.57-15-7.43-5.38-.82-9.65,2-13.88,4.88L8,52.24c-2.33,1.61-5,3.15-6.82,5.36C-1.23,60.5.34,65.29,3.5,67c.54.3,1.07-.4.88-.89-.63-1.58-2.09-2.65-2.52-4.37C1.16,59,4.14,57,6.13,55.57c4.07-2.93,8.25-5.73,12.39-8.55s8.09-4.63,13.06-3.49c4.76,1.09,8.83,4.12,13.17,6.21.32.16.62-.37.31-.56Z"/><path class="cls-1" d="M41.68,48.16c8.79,4.55,8.84,13.76,5.94,22.1-1.39,4-2.78,8-4.37,11.91-.88,2.16-2,4.44-4.25,5.49-2.39,1.14-3.76-.15-5.9-1.2-.42-.2-1.6,1.24-1.3,1.51,3.36,3.07,7.52,2.85,10.71-.81,1.86-2.12,2.7-5,3.65-7.56,1.06-2.89,2.15-5.76,3.16-8.67,1.64-4.7,2.75-9.67,1.4-14.59a13.14,13.14,0,0,0-9.18-9.1c-.28-.08-.1.8.14.92Z"/><path class="cls-1" d="M37.46,45.28a13.56,13.56,0,0,1,4.31-6.19c2-1.5,6.38-2.35,7.58.82,1.41,3.69-1.7,7.57-3.86,10.08-.34.39.17,1.09.65.83,2.27-1.27,3.72-3.91,4.33-6.37.51-2,.9-5.84-1.06-7.23s-5.72-.8-7.63.38a11.65,11.65,0,0,0-5,7.51c-.08.39.53.52.67.17Z"/><path class="cls-1" d="M39.87,46c.68-1,4.32-6.33,5.85-4,.61.91.12,2.57-.3,3.43S44,47,43.56,47.92c-.14.31.18.73.46.58a6.65,6.65,0,0,0,3.09-3.9c.31-1.32.3-3.12-.85-4.07s-2.62-.18-3.67.58a8,8,0,0,0-3.23,4.68.29.29,0,0,0,.51.21Z"/><path class="cls-1" d="M27.9,49.09c3.67-3,7.68,1.48,10.28,3.82a31.74,31.74,0,0,1,4.34,4.56c1.57,2.13,1.25,4,.29,6.22a62.31,62.31,0,0,1-5.87,10.09c-1.18,1.75-2.33,3.76-4.59,4.1-2,.3-3.87-.8-5.47-1.85a54.22,54.22,0,0,1-8.13-7.16A49.94,49.94,0,0,1,15,65.11c-1.79-2.15,1-4.27,2.38-5.65q4.09-4,8.32-7.83c1.35-1.23,2.7-2.74,4.62-2.94s3.62.71,5.16,1.48c.56.27,1.08-.65.54-1-2.32-1.39-5.2-2.59-7.85-1.34a17.88,17.88,0,0,0-4,3.25q-2.76,2.53-5.46,5.1c-1.91,1.81-5.6,4.29-5.84,7.22A3.68,3.68,0,0,0,14,66.19c1.39,1.54,3,2.93,4.46,4.38,3.67,3.6,11.51,12.36,17.08,7.17,2.73-2.54,4.79-6.55,6.59-9.78,1.45-2.61,4-6.45,2.56-9.52C43.07,54.88,39,51.66,36,49.35c-2.48-1.86-5.91-3.25-8.46-.76-.29.28.06.77.39.5Z"/><path class="cls-1" d="M23.63,53.85c1,4.27,6,6.8,9.3,9,2.25,1.52,6,5.94,9,4.62.29-.13.34-.64,0-.73a11.3,11.3,0,0,1-4.27-1.84c-1.47-1.12-2.86-2.27-4.39-3.3-1.69-1.12-3.43-2.16-5-3.43a37.22,37.22,0,0,1-4.24-4.55c-.15-.16-.5-.07-.44.19Z"/><path class="cls-1" d="M21.64,55.7c1.58,3.81,5.67,6.77,8.88,9.14,2.3,1.7,6.21,5.53,9.37,4.49a.35.35,0,0,0,0-.65,24.92,24.92,0,0,1-5.05-2.22c-1.56-1.06-3.08-2.18-4.57-3.31C27.2,60.82,24.81,58,22,55.42c-.19-.17-.46.08-.37.28Z"/><path class="cls-1" d="M21.05,57.6A6.32,6.32,0,0,0,17.83,60a.38.38,0,0,0,.53.52c1-.78,2-1.57,3-2.39a.28.28,0,0,0-.28-.48Z"/><path class="cls-1" d="M17,61.61a4.22,4.22,0,0,0-1.28,1.62c-.16.3.29.64.53.4A4,4,0,0,0,17.48,62a.3.3,0,0,0-.45-.35Z"/><path class="cls-1" d="M17,65.36a2.38,2.38,0,0,0,2,1.84c.35.08.54-.45.26-.64-.64-.44-1.1-1-1.7-1.53a.35.35,0,0,0-.55.33Z"/><path class="cls-1" d="M21.17,69.57a4.5,4.5,0,0,0,3.18,2.57c.39.09.48-.49.16-.65a8.27,8.27,0,0,1-2.83-2.21c-.21-.26-.67,0-.51.29Z"/><path class="cls-1" d="M27.41,74.65a5.3,5.3,0,0,0,2.05,1.16c.32.08.7-.26.43-.57a5.26,5.26,0,0,0-2-1.37.45.45,0,0,0-.44.78Z"/><path class="cls-1" d="M32.48,76.56A1.31,1.31,0,0,0,34,75.23a.35.35,0,0,0-.56-.23,5.9,5.9,0,0,1-1,.86.37.37,0,0,0,.1.7Z"/><path class="cls-1" d="M35.24,74.24A5.68,5.68,0,0,0,37,72.31c.17-.36-.29-.6-.56-.43a5.51,5.51,0,0,0-1.68,1.88.35.35,0,0,0,.49.48Z"/><path class="cls-1" d="M2.44,65.85c2.85,5.35,7.67,9.42,12.44,13.07,2.4,1.84,5,4.22,7.88,5.3,3.43,1.3,6.37,2.08,9.51,4.2,1.13.75,2.14-1,1.06-1.8-4.63-3.24-9.85-4.07-14.4-7.32A64.84,64.84,0,0,1,4,65.08a.69.69,0,0,0-1.2.7Z"/><path class="cls-1" d="M192,46.93c.43,1.17,1.49,1.9,1.94,3.06a5.24,5.24,0,0,1-.26,4c-1.12,2.58-3.63,4.44-5.64,6.29s-3.91,4-6.29,5.25a4.68,4.68,0,0,1-4.23.46,22,22,0,0,1-3.14-2.06c-.27-.17-.67.14-.5.44,1.4,2.41,3.73,4,6.6,3.31,3.42-.84,6.07-4,8.56-6.25s5.38-4.47,6.2-7.73-.64-5-2.93-7c-.18-.15-.37.1-.31.27Z"/><path class="cls-1" d="M153.91,3.07C153.51.78,150.15,0,148.18,0c-3.28.09-6.2,2-8.81,3.81-4.09,2.84-11.94,8.74-6.37,14,.25.24.77.08.67-.33a27.22,27.22,0,0,1-1-3.19,5,5,0,0,1,1.3-3.8,28.26,28.26,0,0,1,5.85-5.11c2.18-1.55,4.6-3.23,7.27-3.79a7.24,7.24,0,0,1,3.94.19c1,.36,1.67,1.07,2.58,1.49a.2.2,0,0,0,.26-.23Z"/><path class="cls-1" d="M195.11,49.62c-2.78-4.25-6.65-7.91-10-11.7-3.62-4.08-7.21-8.17-10.81-12.27L153,1.32a.58.58,0,0,0-.87.76q10.53,12,21,24.09,5.27,6,10.54,12c3.51,4,6.92,8.15,10.72,11.87a.37.37,0,0,0,.56-.49c-3.19-4.26-6.85-8.19-10.35-12.19l-10.53-12q-10.54-12-21.11-24a.58.58,0,0,0-.87.76q10.67,12.17,21.31,24.34,5.26,6,10.5,12.07c3.39,3.91,6.58,8.34,10.51,11.73.35.3.94-.22.69-.6Z"/><path class="cls-1" d="M168.05,19.1c4.29-1.78,9-2.38,12.74,1,1.78,1.58,3.32,4.1,3,6.58-.27,2.33-2.25,4.64-3.57,6.49-.45.64.54,1.27,1,.66,1.61-2.08,3.74-4.84,3.79-7.6a9.63,9.63,0,0,0-3.44-7,11.44,11.44,0,0,0-14-.75c-.34.26,0,.76.41.61Z"/><path class="cls-1" d="M170.57,22.15c1.78-.61,3.28-1.87,5-2.61s4.36-.66,5.8.85c3.5,3.69-.11,8-3.28,10.28-.57.41.16,1.24.72.82,2-1.44,4.59-3.79,5.13-6.3a7.32,7.32,0,0,0-1.76-5.51c-3.32-3.58-9.29-.9-11.89,2.16-.15.18.1.37.27.31Z"/><path class="cls-1" d="M160.79,11.9c-3.24,1.64-6,4.78-8.73,7.15-3,2.59-6.24,5.06-8.86,8a.42.42,0,0,0,.55.63c3.27-2.21,6.15-5.12,9.11-7.72,2.71-2.39,6.19-4.72,8.24-7.72a.24.24,0,0,0-.31-.35Z"/><path class="cls-1" d="M163.81,15.45c-3.23,2.2-6.09,5.1-9,7.67l-8.91,7.81a.49.49,0,0,0,.65.74l8.86-7.76c2.94-2.58,6-5.05,8.74-7.89a.31.31,0,0,0-.41-.47c-3.17,2.3-6,5.05-9,7.62l-8.86,7.76a.49.49,0,0,0,.65.74l8.91-7.8c2.94-2.58,6.2-5,8.8-7.94a.32.32,0,0,0-.42-.48Z"/><path class="cls-1" d="M183.82,37.73a71,71,0,0,0-8.89,7.47c-3,2.75-6.11,5.41-9.18,8.1-.46.41.17,1.13.63.72,5.94-5.19,12.23-10.17,17.79-15.76a.34.34,0,0,0-.45-.51c-6.28,4.77-12,10.36-18,15.55-.46.41.17,1.13.63.72,3.07-2.69,6.13-5.4,9.25-8a70.62,70.62,0,0,0,8.57-7.82c.19-.22-.14-.59-.38-.44Z"/><path class="cls-1" d="M186.46,41.09c-3.05,2.53-6.18,4.9-9.15,7.54s-5.92,5.22-8.89,7.82a.52.52,0,0,0,.69.79l9-7.85c2.95-2.58,6.26-5,8.86-8a.37.37,0,0,0-.49-.56c-3.25,2.2-6.12,5.15-9.07,7.74l-9,7.85a.52.52,0,0,0,.69.79q4.45-3.9,8.93-7.78c3-2.6,5.77-5.38,8.67-8.08a.19.19,0,0,0-.25-.29Z"/><path class="cls-1" d="M142.82,28.32c1.88-.48,3.64-2.51,4.77-4,.17-.22-.12-.58-.37-.43a20.92,20.92,0,0,0-2.66,2,7.43,7.43,0,0,0-2,2.13c-.07.15.1.31.24.28Z"/><path class="cls-1" d="M131.81,15.77c1,4.57,5.32,8.46,8.15,12q6.14,7.79,12.29,15.55c7.18,9.08,15.94,16.94,25.11,24,.44.35,1-.37.63-.76-7.92-7.8-16.54-14.37-23.49-23.15q-5.31-6.7-10.6-13.44c-3.7-4.69-8.15-9.32-10.91-14.65a.63.63,0,0,0-1.18.42Z"/><path class="cls-1" d="M101.85,51.37c-.89,1.11-.72,2.43-.41,3.73.58,2.41,1.25,4.79,1.78,7.2,1,4.63,1.81,9.3,2.36,14q.42,3.53.65,7.07c.15,2.31.07,4.67.33,7a4.84,4.84,0,0,0,2,3.86,2.63,2.63,0,0,0,3.43-.3.49.49,0,0,0-.57-.75c-4.62,2-3.88-6.5-4-9q-.36-5.61-1.16-11.18t-2-10.77c-.37-1.58-.76-3.15-1.18-4.72-.49-1.82-1.51-3.94-.75-5.81a.28.28,0,0,0-.48-.28Z"/><path class="cls-1" d="M125.83,42.55c2.68,2,4.35,5,6.08,7.76,1.93,3.09,3.76,6.25,5.63,9.38s3.65,6.07,5.64,9c1,1.46,2,2.9,3.1,4.3s3.89,3.72,2.13,5.29a.62.62,0,0,0,.44,1.11,2.15,2.15,0,0,0,1.83-2.45c-.18-1.73-1.82-3.12-2.83-4.4a111.24,111.24,0,0,1-7.44-11c-2.26-3.7-4.42-7.46-6.78-11.09-2-3-4.07-6.87-7.56-8.33a.23.23,0,0,0-.24.4Z"/><path class="cls-1" d="M101.73,52.9c1.45-2.42,4.57-3.63,7-4.74,2.68-1.21,5.46-2.16,8.24-3.1,1.44-.49,2.89-1,4.34-1.42S124.65,42.1,126,43c2.36,1.47,4,4.3,5.64,6.45a.27.27,0,0,0,.46-.26,16.54,16.54,0,0,0-5.52-7.27,3,3,0,0,0-2.82-.29c-1.85.52-3.68,1.15-5.5,1.77a91,91,0,0,0-10.4,4.23c-2.43,1.17-5.49,2.38-6.45,5.13-.07.18.19.37.3.18Z"/><path class="cls-1" d="M112.63,49.61c-.83-3.13-2.19-6.06-2.82-9.26-.22-1.13-1.49-9.58,1.13-8.48a11.07,11.07,0,0,1,3.3,2.91,20.46,20.46,0,0,1,2.35,3.41,34.36,34.36,0,0,1,3,7.93c.19.7,1.4.4,1.24-.32A28.76,28.76,0,0,0,117,36.14a19.67,19.67,0,0,0-3.3-3.92c-.88-.79-2.45-2.37-3.79-2s-1.69,2-1.9,3.13a15.44,15.44,0,0,0,.13,5.12c.55,3.82,1.62,8.29,4.11,11.35a.24.24,0,0,0,.41-.24Z"/><path class="cls-1" d="M111.39,48.45a2.13,2.13,0,0,0-1,2.63,2.23,2.23,0,0,0,2.51,1.47,2,2,0,0,0,1.58-2.15,1.56,1.56,0,0,0-2.07-1.3.29.29,0,0,0,.07.56,1.21,1.21,0,0,1,1,1,1,1,0,0,1-1.12.91,1.35,1.35,0,0,1-1.06-1.28,4.33,4.33,0,0,1,.4-1.57c0-.16-.15-.26-.28-.22Z"/><path class="cls-1" d="M120.4,46.3c.15-.41-.22-.72-.63-.58s-.71.9-.71,1.4A1.87,1.87,0,0,0,121.39,49a1.81,1.81,0,0,0,1.14-2.63c-.61-.9-2.24-1.14-2.68.05a.31.31,0,0,0,.47.37,1.09,1.09,0,0,1,1.23.06c.34.31.13.76-.18,1a.79.79,0,0,1-1.12-.13,1.31,1.31,0,0,1-.27-.6c-.06-.33.08-.54.1-.86,0,.18.25.28.32.09Z"/><path class="cls-1" d="M109.4,47.56a27.21,27.21,0,0,1-3-7.79c-.44-2-1.71-6.45.48-7.68,2.38-1.34,4.84,3.5,5.88,5.16a58.55,58.55,0,0,1,3.78,7.13c.27.6,1.22.22,1-.38a58.3,58.3,0,0,0-5.2-9.33c-1.23-1.79-3.37-5.1-6-3.58-2.45,1.4-1.54,5.17-1.16,7.37a18.92,18.92,0,0,0,4,9.32.18.18,0,0,0,.29-.22Z"/><path class="cls-1" d="M104.07,49.78C99.85,51.51,101,56.46,101.56,60c.82,5.09,1.52,10.2,1.89,15.34.19,2.61.29,5.23.27,7.85,0,2.46-.3,4.92-.34,7.38,0,1.77.35,3.63,2,4.61,1.09.66,2.7.86,3.38-.4a.36.36,0,0,0-.37-.5,3,3,0,0,1-2.63-.28,3.8,3.8,0,0,1-1.16-3c0-2.09.28-4.21.33-6.3a102.53,102.53,0,0,0-.41-11.49c-.34-3.87-.88-7.73-1.5-11.57-.55-3.41-2.57-9.33,1.25-11.55.16-.1,0-.35-.16-.29Z"/><path class="cls-1" d="M125.55,41.68c1.11,1.46,2.51,2.72,3.74,4.09s2.44,2.87,3.59,4.37c2.24,2.93,4.29,6,6.36,9.07s4.15,6.09,6.48,9a55.55,55.55,0,0,0,3.76,4.22c1.53,1.55,2.92,2.59,3.12,4.9a.44.44,0,0,0,.87,0,4.69,4.69,0,0,0-1.62-4c-1.3-1.36-2.67-2.63-3.91-4a103.88,103.88,0,0,1-7.29-9.75c-2.24-3.29-4.43-6.61-6.83-9.78-2.26-3-4.8-6.33-7.91-8.45a.25.25,0,0,0-.36.35Z"/><path class="cls-1" d="M113.5,60.13a.56.56,0,0,0-.57-.53.24.24,0,0,0-.25.32,75.54,75.54,0,0,1,3,7c.84,2.42,1.23,5,2.08,7.39.15.42.74.22.73-.19a25.18,25.18,0,0,0-2-7.53,36.59,36.59,0,0,0-3.45-7l-.16.37.21.11c0,.22.4.19.36,0Z"/><path class="cls-1" d="M113,60a39.12,39.12,0,0,0,7-2c2-.74,4.6-1.5,6.08-3a.29.29,0,0,0-.26-.47A11.76,11.76,0,0,0,123,55.69c-1.09.52-2.19,1-3.31,1.47-2.23.92-4.52,1.63-6.81,2.39A.22.22,0,0,0,113,60Z"/><path class="cls-1" d="M125.69,54.93a12.94,12.94,0,0,1,1.42,3.58c.45,1.26,1,2.5,1.51,3.72a22.32,22.32,0,0,0,3.65,6.22.3.3,0,0,0,.52-.29c-.9-2.6-2.48-5-3.64-7.47-.89-1.92-1.43-4.72-3.17-6a.2.2,0,0,0-.29.28Z"/><path class="cls-1" d="M117.86,73.85c-.77,3.24,8.52-.78,9.54-1.15,1.7-.61,4.36-1.18,5.43-2.81s-.79-2.67-1.52-4c-.14-.26-.63-.2-.55.14.31,1.37,1.92,2.28.76,3.82-.8,1.06-3.27,1.53-4.49,2-1.4.5-2.8,1-4.21,1.5-1,.36-3.77,1.71-4.6.49-.1-.16-.32-.07-.36.09Z"/><path class="cls-1" d="M105.39,94.86c2.13.85,3.68.23,5.78-.44,3.89-1.23,8-1.56,11.92-2.74a98.85,98.85,0,0,0,21.45-9.35c3.13-1.83,10.83-2.76,8.49-7.61-1.65-3.43-5.44-5.74-7.87-8.57-2.28-2.65-3.08-6.2-5.84-8.37-.45-.35-1.1.39-.66.77,2.28,2,3,4.91,4.71,7.27a70.44,70.44,0,0,0,5.53,5.8c1.37,1.45,3.44,2.87,2.43,4.89-.75,1.49-2.16,1.59-3.59,2.23-2.61,1.17-5,2.75-7.46,4.15a102.62,102.62,0,0,1-16.21,7,66.65,66.65,0,0,1-9.72,2.5c-2.54.48-6.23,2.41-8.67,1.53-.58-.21-.85.68-.29.9Z"/></g></g></svg>