<svg width="1440" height="2950" viewBox="0 0 1440 2950" fill="none" xmlns="http://www.w3.org/2000/svg">
<g clip-path="url(#clip0_2_2)">
<rect width="1440" height="2950" fill="white"/>
<path d="M0.346558 749H1440.35V1340H0.346558V749Z" fill="#9B9B7A"/>
<rect x="0.346558" y="1423" width="1440" height="731" fill="#E9D099"/>
<path d="M0 2355H1440V2950H0V2355Z" fill="#997B66"/>
<path d="M1612.35 1607.53C1521.18 1547.87 1357.85 1507.1 1067.85 1572.53C856.115 1620.3 678.527 1738.7 469.847 1681.03C203.847 1607.53 232.847 1557.53 -137.653 1619.03V1189.7C-142.846 1173.71 -141.32 1159.17 -137.653 1147.37V1127.53C-107.669 1106.46 -128.842 1119.02 -137.653 1147.37V1189.7C-132.228 1206.4 -119.469 1224.69 -94.1535 1243.1C26.8466 1331.1 195.347 1104.1 430.347 1181.1C665.347 1258.1 661.627 1170.1 791.847 1199.1C958.347 1236.19 985.182 1215.36 1067.85 1199.1C1304.35 1152.6 1487.95 1329.9 1612.35 1219.1V1607.53Z" fill="#BAA587"/>
<path d="M292.847 2035.5C68.9668 2094.95 -36.6534 1970.17 -114.653 1930V2572.5C416.847 2340.5 502.347 2444 720.847 2536.5C939.347 2629 939.847 2550.5 1128.35 2508.5C1382.1 2451.96 1501.68 2536 1556.35 2600.5V1862C1530.01 1880.17 1470.85 1908 1269.35 2035.5C1099.94 2142.69 1034.35 2162 904.347 2114C695.884 2037.03 558.347 1965 292.847 2035.5Z" fill="#B58463"/>
<rect width="1440" height="749" fill="#8CA1AD"/>
<path d="M0 405.5L30 411.8C60 417.95 120 430.55 180 437.3C240 444.05 300 444.95 360 441.5C420 438.05 480 429.95 540 417.95C600 405.95 660 390.05 720 371.45C780 353 840 332 900 339.5C960 347 1020 383 1080 389C1140 395 1200 371 1260 353C1320 335 1380 323 1410 317L1440 311V749H1410C1380 749 1320 749 1260 749C1200 749 1140 749 1080 749C1020 749 960 749 900 749C840 749 780 749 720 749C660 749 600 749 540 749C480 749 420 749 360 749C300 749 240 749 180 749C120 749 60 749 30 749H0V405.5Z" fill="#484C33"/>
<path d="M0 471.5L30 462.05C60 452.45 120 433.55 180 423.2C240 413 300 411.5 360 420.2C420 429.05 480 447.95 540 462.5C600 477.05 660 486.95 720 493.25C780 499.55 840 501.95 900 484.55C960 467 1020 429.5 1080 408.5C1140 387.5 1200 383 1260 390.5C1320 398 1380 417.5 1410 427.25L1440 437V749H1410C1380 749 1320 749 1260 749C1200 749 1140 749 1080 749C1020 749 960 749 900 749C840 749 780 749 720 749C660 749 600 749 540 749C480 749 420 749 360 749C300 749 240 749 180 749C120 749 60 749 30 749H0V471.5Z" fill="#585B40"/>
<path d="M0 525.95L30 515.9C60 506 120 485.9 180 481.7C240 477.5 297.5 489 360 504.2C422.5 519.4 480 537.05 540 533.75C600 530.45 660 520.55 720 504.2C780 488 840 465.5 900 457.7C960 450.05 1020 456.95 1080 466.7C1140 476.45 1200 489.05 1260 502.25C1320 515.45 1380 529.55 1410 536.45L1440 543.5V749H1410C1380 749 1320 749 1260 749C1200 749 1140 749 1080 749C1020 749 960 749 900 749C840 749 780 749 720 749C660 749 600 749 540 749C480 749 420 749 360 749C300 749 240 749 180 749C120 749 60 749 30 749H0V525.95Z" fill="#686A4E"/>
<path d="M0 573.5L30 563.3C60 552.95 120 532.55 180 522.8C240 513.05 300 513.95 360 530.3C420 546.5 480 578 540 580.55C600 582.95 660 556.55 720 543.95C780 531.5 840 533 900 541.7C960 550.55 1020 566.45 1080 573.2C1140 579.95 1200 577.55 1260 569.45C1320 561.5 1380 548 1410 541.25L1440 534.5V749H1410C1380 749 1320 749 1260 749C1200 749 1140 749 1080 749C1020 749 960 749 900 749C840 749 780 749 720 749C660 749 600 749 540 749C480 749 420 749 360 749C300 749 240 749 180 749C120 749 60 749 30 749H0V573.5Z" fill="#787A5C"/>
<path d="M0 588.5L30 589.55C60 590.45 120 592.55 180 601.55C240 610.55 300 626.45 360 626.45C420 626.45 480 610.55 540 612.05C600 613.55 660 632.45 720 639.05C780 645.5 840 639.5 900 629C960 618.5 1020 603.5 1080 599.45C1140 595.55 1200 602.45 1260 609.8C1320 617 1380 624.5 1410 628.25L1440 632V749H1410C1380 749 1320 749 1260 749C1200 749 1140 749 1080 749C1020 749 960 749 900 749C840 749 780 749 720 749C660 749 600 749 540 749C480 749 420 749 360 749C300 749 240 749 180 749C120 749 60 749 30 749H0V588.5Z" fill="#898A6B"/>
<path d="M0 713L30 702.2C60 691.55 120 669.95 180 668.75C240 667.55 300 686.45 360 684.95C420 683.45 480 661.55 540 658.55C600 655.55 660 671.45 720 680.3C780 689 840 690.5 900 694.25C960 698 1020 704 1080 705.2C1140 706.55 1200 702.95 1260 696.8C1320 690.5 1380 681.5 1410 677L1440 672.5V749H1410C1380 749 1320 749 1260 749C1200 749 1140 749 1080 749C1020 749 960 749 900 749C840 749 780 749 720 749C660 749 600 749 540 749C480 749 420 749 360 749C300 749 240 749 180 749C120 749 60 749 30 749H0V713Z" fill="#9B9B7A"/>
</g>
<defs>
<clipPath id="clip0_2_2">
<rect width="1440" height="2950" fill="white"/>
</clipPath>
</defs>
</svg>
