<svg xmlns="http://www.w3.org/2000/svg" viewBox="0 0 143.54 100.04"><defs><style>.cls-1{fill:#8d816d;}</style></defs><title>Asset 2</title><g id="Layer_2" data-name="Layer 2"><g id="_1" data-name="1"><path class="cls-1" d="M131.87,3.05a1.78,1.78,0,0,0-.35-2.47,2.36,2.36,0,0,0-2.91-.15,4.57,4.57,0,0,0-2.12,3,4.63,4.63,0,0,0,0,2c.2.83,1,1.61.51,2.46-.27.51.38,1,.83.7,1.44-.91.17-2.33-.08-3.52a3.42,3.42,0,0,1,1-3.15c.62-.58,1.26-.88,2-.4.57.37.61.88.8,1.47a.19.19,0,0,0,.32.06Z"/><path class="cls-1" d="M115.32,10.7c3.71,1.89,7.29-2.48,11-1.93,2.82.42,2.86,3.11,3.48,5.28a14.7,14.7,0,0,0,2.78,5.2c.44.54,1.35-.08.9-.62a15.24,15.24,0,0,1-3-6.39c-.4-1.67-1-3.26-2.61-4a6.7,6.7,0,0,0-5.18.17c-2.52.94-4.43,2.05-7.22,1.84a.26.26,0,0,0-.16.49Z"/><path class="cls-1" d="M95.65,23.47a18.64,18.64,0,0,0-5.16,7.76c-1,2.92-1,5.93-1.52,8.94-1.14,6.77-4.44,12.95-8.44,18.44a183.19,183.19,0,0,1-12.92,15c-.68.74-1.36,1.39-1.19,2.45a8.15,8.15,0,0,0,1.67,3.07,17.26,17.26,0,0,0,6.07,4.74c4.82,2.4,12.21,4.88,16.42.15.64-.72-.46-1.63-1.12-1-4,4.05-10.78,1.49-15.11-.78a14.25,14.25,0,0,1-5.7-5c-.41-.68-.89-1.29-.49-2.07a9.07,9.07,0,0,1,1.36-1.49c1-1.07,2-2.15,3-3.23,7.37-8.12,15.07-17.08,17.39-28.11.64-3,.5-6.18,1.17-9.21a22.24,22.24,0,0,1,4.89-9.51c.15-.19-.11-.39-.28-.24Z"/><path class="cls-1" d="M134,41.69c-2.6,2.86-1.76,7.08-3.76,10.24a27.6,27.6,0,0,1-4.16,4.42,27.26,27.26,0,0,0-3.81,4.76,38.09,38.09,0,0,0-4.53,11,51.29,51.29,0,0,0-1.88,12.43c0,.82,1.25.83,1.4.06.76-4,.93-8,1.9-12a35.87,35.87,0,0,1,5-11.73c2.11-3.06,5.39-5.18,7.31-8.33s1-7.37,2.86-10.7c.11-.2-.18-.38-.33-.22Z"/><path class="cls-1" d="M117.28,10.33c-3-.74-6.12-1.11-9.19-1.55-2.83-.39-5.72-1-8.58-1.12-5.3-.22-7.72,4.44-10.27,8.35C82.61,26.17,76.93,36.92,69.63,46.63c-.51.68-1.13,1.35-.85,2.26a6.79,6.79,0,0,0,2.07,2.45,14,14,0,0,0,7.69,3.36c.85.1,1.09-1.21.23-1.32A13.32,13.32,0,0,1,74.28,52c-1.16-.59-3.4-1.88-3.93-3.17s1.86-3.42,2.54-4.38c1-1.35,1.92-2.73,2.84-4.13,3.56-5.37,6.8-10.94,10.11-16.45,1.75-2.91,3.53-5.81,5.4-8.64,1.69-2.54,3.43-5.81,6.72-6.38,3.05-.53,6.6.47,9.64.88,3.2.43,6.42.93,9.66,1,.29,0,.27-.42,0-.48Z"/><path class="cls-1" d="M89.54,37.28a61.4,61.4,0,0,0-5.65,8.16q-1.35,2.14-2.64,4.33c-.78,1.3-1.91,4.5-3.85,3.93-.38-.11-.51.39-.3.61,2.42,2.55,4.89-3.46,5.72-4.85C85.16,45.52,88,41.68,90,37.56a.26.26,0,0,0-.44-.28Z"/><path class="cls-1" d="M71.58,45.58c-2.19-2.66-4.58,2.81-5.33,4.11s-1.82,2.5-1.17,4a9.86,9.86,0,0,0,3.45,4,14,14,0,0,0,5,2.07c1.11.25,3,.89,4,.1a5.6,5.6,0,0,0,1-1.52l1.81-2.88c.69-1.1,1.69-2.36,1-3.65a.38.38,0,0,0-.68.15c-.13,2.14-1.86,4.2-3,5.94-.5.74-.62,1.31-1.65,1.2-.47,0-.95-.12-1.42-.21a15.6,15.6,0,0,1-3.72-1.1C69.19,57,65.27,54.46,66,52.19A18.53,18.53,0,0,1,67.79,49c.67-1.18,1.69-4,3.47-3.06.22.1.48-.18.32-.37Z"/><path class="cls-1" d="M93.17,84.62c-2.74,3.35.54,8.46,3.18,10.7,3,2.52,8.8,6,12.82,4.27a.58.58,0,0,0-.25-1.11,14.07,14.07,0,0,1-6-.86,22.06,22.06,0,0,1-5.21-3,11.09,11.09,0,0,1-3.57-4.54c-.72-1.82-.55-3.48-.56-5.37a.21.21,0,0,0-.36-.11Z"/><path class="cls-1" d="M115.15,10.56c-.79,5.3-1.14,10.63-2.16,15.91a141.6,141.6,0,0,1-4,15.61A229.56,229.56,0,0,1,96.94,72a55.07,55.07,0,0,1-3.8,7.16c-1.52,2.26-4.11,5.16-6.83,5.92-.61.17-.38,1.13.24,1.07,2.14-.19,4.25-2.32,5.66-3.85A24.94,24.94,0,0,0,96,76.62c2.48-4.85,4.7-9.86,6.84-14.87a177,177,0,0,0,10.6-32.18c1.3-6.1,2.58-12.71,2.21-19a.25.25,0,0,0-.5,0Z"/><path class="cls-1" d="M133,18.89c-4.49,3.82-8.32,8.51-12.13,13q-3,3.5-5.85,7.06a72.56,72.56,0,0,0-5.33,6.68A72.76,72.76,0,0,0,106,53.1q-2.07,4.21-4.1,8.46c-2.29,4.77-4.65,9.52-6.6,14.44-1.6,4-3.55,8.87-2.78,13.28.14.81,1.43.7,1.28-.11-.74-4,.93-8.31,2.33-12,1.79-4.67,4-9.17,6.14-13.69,2.5-5.26,5-10.52,7.63-15.73,1.29-2.58,3.28-4.67,5.07-6.9s3.57-4.43,5.39-6.62c4.23-5.11,8.86-9.89,13.05-15,.17-.2-.1-.54-.32-.36Z"/><path class="cls-1" d="M127.54,55.86a48.07,48.07,0,0,0-3.85,11.66c-.31,1.32-.6,2.08.52,2.93a3.48,3.48,0,0,0,3.64.76c.71-.31.31-1.44-.41-1.13a2.48,2.48,0,0,1-2.68-.73c-.29-.52,0-1.07.12-1.62.32-1.35.67-2.7,1-4,.69-2.56,1.53-5.1,2-7.71a.22.22,0,0,0-.41-.12Z"/><path class="cls-1" d="M124.22,66.52c-1.65.19-1.93.29-2.35,2-.49,2.06-1.06,4-1.73,6a2.56,2.56,0,0,0,.38,2.77,1.3,1.3,0,0,0,2.07-.21c.16-.25-.12-.61-.4-.57s-.57,0-.76-.32c-.48-.18-.59-.48-.34-.91a4.93,4.93,0,0,1,.51-1.53c.28-.76.52-1.53.73-2.31s.33-1.65.5-2.48c.29-1.35.58-1.34,1.58-1.95a.29.29,0,0,0-.19-.52Z"/><path class="cls-1" d="M106,9c-1,.58-3.46,1.44-3,3,.3,1.1,4.48,5,1.42,5.12-4.6.1-3.4,5.42-2.79,8.42,1,5.13,2.29,10.21,3.12,15.38a66.7,66.7,0,0,1,.87,7.6,21.81,21.81,0,0,1-.13,3.7,15.43,15.43,0,0,0-.55,3.34.42.42,0,0,0,.73.24c1.35-1.3,1.34-4,1.37-5.74a44,44,0,0,0-.54-6.88c-.69-4.84-1.8-9.61-2.87-14.37A52,52,0,0,1,102,21.42c-.11-1.67.42-3.06,2.22-3.27a3.78,3.78,0,0,0,1.79-.36c1.11-.78.27-2.33-.19-3.24s-1.27-1.53-1.63-2.34-.12-1,.58-1.55c.51-.37,1-.77,1.5-1.16A.29.29,0,0,0,106,9Z"/><path class="cls-1" d="M105.18,56.26c2.16-2.06,4-4.5,6-6.67a58.19,58.19,0,0,1,6.65-6.2,36.63,36.63,0,0,1,7.91-4.68c2.73-1.18,5.59-2.13,8.22-3.54.48-.25.06-1.05-.42-.83-5.77,2.63-11.69,4.56-16.7,8.59A56,56,0,0,0,110.54,49a58.26,58.26,0,0,0-5.71,7c-.13.21.19.37.35.23Z"/><path class="cls-1" d="M136.14,30.76c1.42-1-1-2.7.38-3.54s3.19.17,4.14-1.5a.59.59,0,0,0-.14-.67l-.16-.17a.31.31,0,0,0-.43,0c-.9.87-1.75.79-2.89,1a3.24,3.24,0,0,0-1.78.78c-1.31,1.39.64,2.54.6,3.93a.18.18,0,0,0,.28.13Z"/><path class="cls-1" d="M78,63.84a18,18,0,0,0,9,6.35l-.18-.8a6.41,6.41,0,0,1-6.5,2.31,27.29,27.29,0,0,1-3.62-1.28c-1.22-.47-1.56-1.37-2.48-2.12a.56.56,0,0,0-.73.85c.55.46.8,1.15,1.35,1.6a5.61,5.61,0,0,0,1.66.78,17.82,17.82,0,0,0,4.61,1.41,7.57,7.57,0,0,0,6.5-2.88.52.52,0,0,0-.17-.8,24.88,24.88,0,0,1-9-5.8.29.29,0,0,0-.43.38Z"/><path class="cls-1" d="M116.66,81.32A12,12,0,0,0,114.5,81a19.55,19.55,0,0,1-3-.79,40.68,40.68,0,0,0-5.41-1.65.7.7,0,0,0-.79.55A7,7,0,0,0,107.94,86c1.59,1.28,5.24,3.43,7.23,2,.34-.24.27-.91-.2-.94a10,10,0,0,1-5.92-1.93,5.67,5.67,0,0,1-2.43-5.81l-.79.55c2.18.4,4.17,1.34,6.29,1.91,1.39.38,3.3.79,4.57-.07a.22.22,0,0,0,0-.38Z"/><path class="cls-1" d="M115.28,13A28.31,28.31,0,0,1,131,20.41c.57.54,1.37-.39.8-.93A27,27,0,0,0,115.44,12c-.61,0-.8.87-.16,1Z"/><path class="cls-1" d="M116.36,83.57c.11,3.62.91,8.63-.29,12.06-.85,2.42-6.21,2.31-8.57,3.05a.62.62,0,0,0,.27,1.2A33.3,33.3,0,0,0,115,98.46c.89-.31,1.37-.42,1.89-1.26.85-1.38.58-4,.64-5.51a62.5,62.5,0,0,0-.21-8.21.48.48,0,0,0-1,.09Z"/><path class="cls-1" d="M139.46,55c.79-3.68,1.6-7.35,2.38-11a69,69,0,0,0,1.68-11.34,9.7,9.7,0,0,0-1.1-5.63,19.23,19.23,0,0,0-4.12-4.42,64.49,64.49,0,0,0-5.84-4.6c-.1.09-.07.26,0,.39a9.59,9.59,0,0,0,3.24,3.7A33.28,33.28,0,0,1,140,26a8.31,8.31,0,0,1,2.25,5.43,26.24,26.24,0,0,1-.34,4c-.86,6.44-2.38,12.73-3.74,19.08L137.86,56c-.51,2.39-.74,5.59-1.68,7.9-1.91,4.74-4.68,5.72-7.94,5.93-.61,0-.94,1.23-.31,1.23,3.16,0,7-.57,9-5C138.33,62.83,138.74,58.33,139.46,55Z"/><path class="cls-1" d="M134.76,68.69A11.23,11.23,0,0,1,134.6,73a31.78,31.78,0,0,1-1.73,4.64c-.51,1.28.23,2,1.06.86a14.76,14.76,0,0,0,2.21-11c-.23-.83-1.53.31-1.38,1.24Z"/><path class="cls-1" d="M120.67,77.2a19.21,19.21,0,0,0,11.93,2c.9-.15.84-1.6-.08-1.49a21.07,21.07,0,0,1-11.35-1.51c-.63-.28-1.1.74-.5,1Z"/><path class="cls-1" d="M132.59,36c.87-1.94,3.59-2,4.41-4a2.09,2.09,0,0,0,0-1.78c-.17-.37-1.45-1.45-1.23-1.81.36-.57-.51-1-.92-.6-1.2,1.13.69,2.19,1,3.19.37,1.47-1.37,2.1-2.38,2.77a4,4,0,0,0-1.66,1.86c-.24.57.61,1,.86.41Z"/><path class="cls-1" d="M50.25,29.78c10.19,4.63-1.62,23.82-11.84,16.68C29.18,40,42.6,23.43,51.32,30.3c.57.45-.12,1.21-.7.85C42.25,26,31,40.78,39.78,45.8,48.28,50.62,58.25,35,49.87,30.64c-.53-.28-.17-1.12.38-.86Z"/><path class="cls-1" d="M40.55,47.11a17.79,17.79,0,0,1-2.39,2.52c-.42.4-1.07-.31-.7-.74a19.72,19.72,0,0,1,2.45-2.47c.44-.34,1,.27.64.69Z"/><path class="cls-1" d="M37.68,45.2a6.74,6.74,0,0,1-1.85,2.68c-.43.37-1.08-.32-.69-.73a8,8,0,0,0,1.63-2.36.5.5,0,0,1,.91.41Z"/><path class="cls-1" d="M36.25,47.7a1.1,1.1,0,0,1,.41.39.43.43,0,0,1,0,.52c-.19.2-.52.1-.77,0a11.62,11.62,0,0,0-6.43-1A9.47,9.47,0,0,0,25,49.75c-1.82,1.55-3.7,4.19-3.28,6.7a5.12,5.12,0,0,0,2.18,3.25,9.12,9.12,0,0,0,3.71,1.41,11.43,11.43,0,0,0,6.52-.7,7.94,7.94,0,0,0,4.37-4.75,6.36,6.36,0,0,0-.08-3.93,6.29,6.29,0,0,0-2.28-2.89,1.77,1.77,0,0,1-.54-.55.43.43,0,0,1,0-.27c.08-.38.61-.34.87-.22a7,7,0,0,1,3.58,7,9,9,0,0,1-4.82,6.57,12.7,12.7,0,0,1-8.24,1c-3-.59-6.35-2.45-6.67-5.82a7.22,7.22,0,0,1,.85-3.88,10.67,10.67,0,0,1,3.72-4.48,11.55,11.55,0,0,1,6.73-2A9.49,9.49,0,0,1,36.25,47.7Z"/><path class="cls-1" d="M24,61.6c-7.36,5.11-13.56-7.87-21.2-4.78-.63.26-.95-.66-.37-1,8-4,13.64,9.11,21,5,.52-.29,1.07.41.55.76Z"/><path class="cls-1" d="M21,58.18c-2.72,1.4-5.11-.29-7.51-1.7a45.32,45.32,0,0,0-5.16-2.93C7,53,5.13,52.24,3.72,52.46.3,53,2.24,54.9,3,56.32c.35.63-.57,1.31-.93.67l-2-3.6a.58.58,0,0,1,.13-.8,7.49,7.49,0,0,1,6.59-.87c3.78,1.11,9.74,7.23,13.82,5.57.58-.23.87.62.34.89Z"/><path class="cls-1" d="M51.36,32.68a4.82,4.82,0,0,1,1.21,3.74c-.07.63-1,.47-1-.15a4.13,4.13,0,0,0-1-3c-.4-.46.37-1,.77-.55Z"/><path class="cls-1" d="M48.64,43.2a5.18,5.18,0,0,1-2.87,2.13c-.69.2-1.11-.62-.42-.84a5.31,5.31,0,0,0,2.44-1.77c.41-.6,1.26-.12.85.48Z"/><path class="cls-1" d="M52,38.22a7.38,7.38,0,0,1-1.87,3.46c-.44.45-1.16-.18-.73-.65a7.13,7.13,0,0,0,1.67-3c.16-.59,1.08-.41.93.19Z"/><path class="cls-1" d="M43.65,45.7a5.75,5.75,0,0,1-3.77-1c-.51-.36-.13-1.24.39-.89a5.1,5.1,0,0,0,3.57,1c.63,0,.43.91-.19.86Z"/><path class="cls-1" d="M36.48,50.09a4.75,4.75,0,0,1,1.38,3.17c0,.62-.85.55-1,0a11.25,11.25,0,0,0-.4-1.37,5.87,5.87,0,0,0-.73-1.23.48.48,0,0,1,.75-.61Z"/><path class="cls-1" d="M37.7,55.07a4.87,4.87,0,0,1-1.88,3.29c-.47.35-1-.36-.64-.77a6.09,6.09,0,0,0,1.55-2.72.5.5,0,0,1,1,.2Z"/><path class="cls-1" d="M34.31,59.56a6.44,6.44,0,0,1-3.43,1,.49.49,0,0,1,0-1,7,7,0,0,0,3-.85.47.47,0,0,1,.46.83Z"/><path class="cls-1" d="M28.88,60.52a7,7,0,0,1-3.1-.61c-.58-.26-.45-1.24.15-1a8.52,8.52,0,0,0,3.1.65c.62,0,.47,1.07-.15,1Z"/><path class="cls-1" d="M45.6,28.88C47.54,20.12,60.91,25.45,64.42,18c.29-.61,1.15-.16.93.45C62.23,26.8,49.15,21,46.53,29.06c-.18.57-1.06.43-.93-.18Z"/><path class="cls-1" d="M50.14,29.35c1-2.88,4-3.26,6.67-3.86a44.76,44.76,0,0,0,5.77-1.34c1.34-.49,3.23-1.2,4.12-2.32,2.16-2.7-.57-2.79-2.11-3.3-.69-.23-.48-1.35.22-1.12l3.92,1.28a.58.58,0,0,1,.44.67,7.45,7.45,0,0,1-4.25,5.12c-3.53,1.75-12.06,1.3-13.93,5.29-.26.56-1.05.14-.85-.42Z"/></g></g></svg>