<svg xmlns="http://www.w3.org/2000/svg" viewBox="0 0 158.28 33.18"><defs><style>.cls-1{fill:#bfa042;}</style></defs><title>Asset 3</title><g id="Layer_2" data-name="Layer 2"><g id="_1" data-name="1"><path class="cls-1" d="M111.48,2.15a10.2,10.2,0,0,0-3.87,5.52c-.58,2.07-.22,2.72,1.74,3.57,2.61,1.13,5.49,1.37,8.13,2.4s5,3.11,7.7,4.37c5.26,2.48,11.57,3.1,17.2,4.3,5,1.06,10.5,2.47,15-.65.72-.5-.07-1.57-.79-1.1C152.19,23.42,147,22,142.2,21s-10.07-1.72-14.79-3.41c-4.13-1.49-7.3-4.59-11.6-5.73-1-.27-2.07-.48-3.11-.74S110,10.64,109.17,10c-2.21-1.81,1.36-6.07,2.71-7.37.24-.24-.14-.62-.4-.43Z"/><path class="cls-1" d="M111.59,2.55c.26,1.38,1.4,1.86,2.67,2.23a23.68,23.68,0,0,0,6.53.92,14.49,14.49,0,0,0,6.29-1.34c1.33-.62,2.6-1.46,4.13-1.26s2.63,1.54,3.62,2.82c2.71,3.49,4.47,7.66,8.7,9.57a42.91,42.91,0,0,0,7.15,2.4c1.23.32,2.46.55,3.7.79.48.1,1.93.26,2.1.7a1.66,1.66,0,0,1-1.19,2,.38.38,0,0,0,.08.72c1.36.11,2.77-.23,2.91-1.82s-1.35-2.42-2.66-2.77c-5.94-1.59-12.6-2-16.29-7.55-2.1-3.18-5.07-9.36-9.77-8.16A24.25,24.25,0,0,0,126,3.38a13.38,13.38,0,0,1-4.35,1,23.08,23.08,0,0,1-4.55-.25c-1.6-.23-4-.33-5-1.79a.3.3,0,0,0-.54.21Z"/><path class="cls-1" d="M133.9,4.28a2,2,0,0,0-2.24.85c-.17.24.12.62.38.4a4.66,4.66,0,0,1,1.85-.81.24.24,0,0,0,0-.44Z"/><path class="cls-1" d="M134.5,5.46a15.19,15.19,0,0,0-2.27,1.08c-.29.15-.13.63.2.49a14.86,14.86,0,0,0,2.29-1.15c.24-.15,0-.5-.22-.42Z"/><path class="cls-1" d="M135.55,6.93a7.83,7.83,0,0,0-2,1.15.25.25,0,0,0,.29.41c.64-.37,1.26-.77,1.91-1.12.26-.14.12-.56-.17-.44Z"/><path class="cls-1" d="M136.21,8a3,3,0,0,0-1.18.77.25.25,0,0,0,.34.37,8.53,8.53,0,0,1,1-.67.25.25,0,0,0-.18-.47Z"/><path class="cls-1" d="M137.37,9.43a2.74,2.74,0,0,0-.75.41,2.57,2.57,0,0,0-.59.64c-.15.23.12.62.37.39s.38-.36.58-.53a7,7,0,0,1,.61-.5.24.24,0,0,0-.22-.41Z"/><path class="cls-1" d="M138.15,10.77a4.8,4.8,0,0,0-.79.89.3.3,0,0,0,0,.37.26.26,0,0,0,.36,0,4.37,4.37,0,0,0,.78-.89.29.29,0,0,0,0-.37.28.28,0,0,0-.36,0Z"/><path class="cls-1" d="M144,15.69c.52.66-1.95,2.15-2.46,2.44a8.83,8.83,0,0,1-3.67,1.13c-2.26.16-4.51-.39-6.77-.19a.37.37,0,0,0,0,.72c3.42.8,7.75,1.06,10.91-.7.54-.3,4.67-3.42,2.24-3.77a.24.24,0,0,0-.23.37Z"/><path class="cls-1" d="M107.46,9.75c-.8,1.28-1.77,3.9-1,5.34s4,1.83,5.56,2.26,2.83.76,4.26,1.09a23.82,23.82,0,0,0,4.69,1c1.79,0,1.43-1.35,1.18-2.81a.51.51,0,0,0-1,.11,9.5,9.5,0,0,1,0,1.6l-.79-.15a8,8,0,0,1-2.35-.47q-2.53-.54-5-1.22c-1.28-.35-3.71-.6-4.75-1.39-.76-.08-1.08-.6-1-1.57a9.91,9.91,0,0,1,.12-1.08c.13-.83.36-1.64.49-2.48,0-.22-.3-.41-.43-.19Z"/><path class="cls-1" d="M156.65,20.84c-.78,5.79-7.54,4.13-11.67,3.66-2.16-.24-4.32-.55-6.46-.91-2.57-.43-5.37-.87-6.36-3.67-.2-.57-1.07-.23-.87.34.74,2.18,2.7,3.18,4.83,3.69a84.73,84.73,0,0,0,10.75,1.61c3.61.39,11.2,1.32,10.32-4.7a.27.27,0,0,0-.54,0Z"/><path class="cls-1" d="M19.06,1.89c.24-.08.13-.46-.11-.38a.2.2,0,0,0,.11.38Z"/><path class="cls-1" d="M18.69,1.79c.43,2.84,1.08,5.68,3.32,7.68a19.26,19.26,0,0,0,7.78,3.9,32.24,32.24,0,0,0,4.71.34,14.73,14.73,0,0,0,4.68-.35c1.73-.42,3.75-1.39,5.55-.9,3.32.91.87,4,.06,5.69-.2.43.28,1,.73.68,1.9-1.41,3.37-4.48,1.62-6.57-2-2.43-5.56-1.08-8.06-.39a18.35,18.35,0,0,1-5.86.43,22.16,22.16,0,0,1-3.46-.13A14.82,14.82,0,0,1,26.62,11a12.63,12.63,0,0,1-4.7-3.09c-1.48-1.73-2.05-4.07-2.66-6.22-.09-.3-.62-.24-.57.09Z"/><path class="cls-1" d="M.12,9.77A52.09,52.09,0,0,0,.74,20c.22,1.49.47,3,.76,4.46.25,1.27.36,3,1,4.13,1.05,1.71,3.83,1.92,5.61,2a27.93,27.93,0,0,0,8.38-1C22.83,28,29,25.77,35.18,23.9c4.53-1.36,11.78-2.58,12.29-8.38.05-.51-.66-.49-.81-.09-2,5.25-9.24,6.31-13.89,7.91-5,1.7-10,3.35-15.05,4.74a37,37,0,0,1-7.14,1.4C8.06,29.66,4,29.91,3,27a44.68,44.68,0,0,1-1.55-8.52C1.05,15.6.85,12.68.51,9.76a.2.2,0,0,0-.39,0Z"/><path class="cls-1" d="M34.85,13.55c-1.86,5.38-6,10.63-11.19,13-.29.13-.12.59.17.58,3.25-.15,5.71-3.08,7.63-5.42a15.52,15.52,0,0,0,3.79-8.1c0-.24-.33-.24-.4,0Z"/><path class="cls-1" d="M26,26.69,27.15,28a.42.42,0,0,0,.39.29,49.63,49.63,0,0,0,16-5.29c1.63-.87,3.84-1.7,4.66-3.5a6.73,6.73,0,0,0-.38-5.53.38.38,0,0,0-.69.21c.23,2.18,1.22,4.6-1,6.16a33.34,33.34,0,0,1-5.39,2.91,53.79,53.79,0,0,1-13.38,4.26l.5.27a1.92,1.92,0,0,0-1.7-1.55c-.28-.05-.48.36-.19.49Z"/><path class="cls-1" d="M2.26,27.41c.2,1.51.14,4,1.33,5.16s3.25.42,4.59.21a56.4,56.4,0,0,0,7.54-1.46,3.75,3.75,0,0,0,2.86-2.39c.17-.58-.69-.75-.89-.22-.57,1.5-2.31,1.74-3.65,2-1.55.33-3.12.63-4.68.89s-3.53,1-4.84.05-1.37-2.93-1.84-4.34c-.07-.22-.45-.19-.42.07Z"/><path class="cls-1" d="M19.18,3.68c-4.47,1.82-.3,8,2.12,9.66,1.57,1.09,10.42,4.29,10.46.39a.37.37,0,0,0-.63-.24c-1.74,2.21-6.64.6-8.62-.54C19.83,11.4,16.13,6.78,19.41,4c.16-.13,0-.44-.23-.36Z"/><path class="cls-1" d="M.94,17.16c.58,3.27,4.26,6.16,6.82,8,3.51,2.46,7.49,2.48,11.52,3.43a.36.36,0,0,0,.17-.7c-3.45-1.23-7.07-.79-10.32-2.73-3-1.76-6.62-4.76-7.79-8.08a.21.21,0,0,0-.4.12Z"/><path class="cls-1" d="M19.76,5.58a2.25,2.25,0,0,0-.86,1.11c-.08.22.27.42.41.22s.25-.35.37-.52.28-.33.4-.51-.14-.41-.32-.3Z"/><path class="cls-1" d="M20.39,6.84a4.12,4.12,0,0,0-.78,1.68c-.08.28.37.47.49.19a11.76,11.76,0,0,0,.67-1.66.22.22,0,0,0-.38-.21Z"/><path class="cls-1" d="M21.92,8.46a5.42,5.42,0,0,0-.57,1.73c-.05.27.34.46.47.18a5.79,5.79,0,0,0,.56-1.8c0-.26-.35-.31-.46-.11Z"/><path class="cls-1" d="M23,9.53a3,3,0,0,0-.44,1.67c0,.27.43.34.48.05a8.43,8.43,0,0,1,.37-1.56c.08-.24-.29-.36-.41-.16Z"/><path class="cls-1" d="M24.11,10.53a9.14,9.14,0,0,0-.25,1.73.25.25,0,0,0,.49.12,3.8,3.8,0,0,0,.17-1.86c-.05-.22-.35-.18-.41,0Z"/><path class="cls-1" d="M26.17,12.11a4.42,4.42,0,0,0,.07,1.7c.06.3.47.19.49-.07a4.33,4.33,0,0,0-.15-1.64.22.22,0,0,0-.41,0Z"/><path class="cls-1" d="M28.34,12.61a4.9,4.9,0,0,1,.06,1.08c0,.3.41.3.5.05a1.35,1.35,0,0,0-.14-1.25c-.11-.17-.46-.12-.42.12Z"/><path class="cls-1" d="M.43,10.53c.35-.91,2.3-1.19,3.11-1.48s1.37-.51,2.05-.78c1.59-.63,3.17-1.28,4.73-2,3-1.28,5.86-2.67,8.73-4.14l-.82-.31c.4,1,.69,2.06,1.13,3.05A.34.34,0,0,0,20,4.8a8.77,8.77,0,0,0-.75-3.26.56.56,0,0,0-.81-.31C14.6,3.21,10.67,5,6.64,6.68A58.27,58.27,0,0,0,1.2,8.87c-.69.38-1.26.72-1.2,1.56,0,.2.34.33.43.1Z"/><path class="cls-1" d="M71.9,1c-.75-.64-2-1.53-2.85-.5-1.08,1.29.8,3.14,1.49,4.06A115.54,115.54,0,0,0,80,16.33c3,3.13,6.71,5.66,11.11,6.36,1.25.2,2.52.28,3.78.36s3.69-.06,4.46,1.07c1.71,2.51-3,3.23-4.24,3.54-1.53.37-3,.65-4.56,1.1a.37.37,0,0,0,.09.73,20.87,20.87,0,0,0,7.84-1.36c1.24-.43,2.59-1.07,2.76-2.53.51-4.4-6.31-3.84-8.86-4.13-5.27-.59-9.25-3.67-12.7-7.51-1.62-1.81-3.1-3.74-4.61-5.65l-2.38-3L71.25,3.52l-.49-.59c-1.2-.91-.93-1.43.81-1.54.25.14.56-.21.33-.42Z"/><path class="cls-1" d="M70.15.91a40.06,40.06,0,0,1,7.31,9.9c2,3.51,4.13,7.09,7.38,9.59.34.26.79-.23.58-.57-1.24-2-3.13-3.55-4.46-5.53-1.16-1.73-2.14-3.58-3.17-5.4C76,5.75,73.91,2.07,70.48.49c-.26-.12-.57.19-.33.42Z"/><path class="cls-1" d="M70.6.21c-3.94.27-6.13,3.49-6.94,7.12-.92,4.18,3.79,6.79,6.53,9.21A32.81,32.81,0,0,1,75.42,22c1.17,1.69,2,3.63,3.5,5.09,2.83,2.8,7.43,3.08,11.12,2.29.61-.13.45-1-.12-1-3.66-.3-7.63.3-10.33-2.76a37,37,0,0,1-2.66-4,25.44,25.44,0,0,0-3.16-3.78c-2.42-2.41-5.21-4.42-7.63-6.83-3.27-3.23.65-9.4,4.54-10.16a.31.31,0,0,0-.08-.6Z"/><path class="cls-1" d="M64.76,9.46l0-.1a.23.23,0,0,0-.07-.31L64.6,9a.25.25,0,0,0-.34.09c-.48.9-.11,2.2,0,3.17.16,1.7.36,3.39.53,5.08a42.26,42.26,0,0,1,0,10.72c-.12.78,1.07,1.14,1.19.35a36.33,36.33,0,0,0,.17-9.49c-.13-1.36-.32-2.71-.52-4.06-.12-.77-.25-1.55-.38-2.32C65.13,12,65,11.48,65,11a2.51,2.51,0,0,0-.58-1.61.21.21,0,0,0,.39.11Z"/><path class="cls-1" d="M69,15.09c-2,3.65-2.43,9.65-1.65,13.67.09.46.77.34.79-.1.11-2.27-.07-4.52.17-6.79s.92-4.42,1.11-6.66a.23.23,0,0,0-.42-.12Z"/><path class="cls-1" d="M65.78,29.11a3,3,0,0,0,3.07-.18.67.67,0,0,0-.6-1.18,2.41,2.41,0,0,1-1.86.1.7.7,0,0,0-.61,1.26Z"/><path class="cls-1" d="M100,25.64c-4.16,3-10.33,3-15.26,2.69-.79,0-1.07,1.12-.24,1.25,5,.82,12.09.44,16.18-2.94.59-.48,0-1.46-.68-1Z"/></g></g></svg>