<svg width="175" height="71" viewBox="0 0 175 71" fill="none" xmlns="http://www.w3.org/2000/svg">
<g clip-path="url(#clip0_2_2)">
<path d="M158.3 63C158 63.3 156.4 64.9 156.6 65.3C156.8 65.6 158.4 66.5 158.7 66.8C159 67.1 159.9 69.2 160.1 69.2C160.3 69.2 163.1 69.2 163.1 69.2C163.1 69.2 163.1 68.4 162.8 68.2C162.4 68 161.3 67 161.3 67L158.3 63Z" fill="#D92C09"/>
<path d="M133.8 24.1C133.8 24.1 134.1 23.2 134.2 23.2C134.3 23.3 141.9 25.6 142.2 25.9C142.5 26.2 145.7 20.2 146.1 20.2C146.5 20.2 149.9 21.4 149.9 21.9C149.8 22.4 144.5 29 142.6 29.4C140.7 29.9 134 24.2 134 24.2L133.8 24.1Z" fill="#F7A98F"/>
<path d="M159.2 14.2C159.9 14.9 163.2 21.6 164.1 22.3C164.9 23 171.3 28.5 171.1 28.9C170.9 29.3 170.5 30.1 170.4 30.3C170.3 30.5 163 26.8 161.4 25.2C159.8 23.6 159.5 20.8 159.5 20.6C159.5 20.4 159.2 14.2 159.2 14.2Z" fill="#F7A98F"/>
<path d="M154.2 64.4C153.9 64.9 153.3 67.2 153.6 67.7C153.9 68.2 155.1 68.1 156.1 68.9C157.1 69.6 158.8 70.5 159.7 70.3C160.6 70.2 161 70.2 161.2 69.9C161.4 69.6 158.4 66.9 158.2 66.8C158.1 66.6 156.5 63.8 156.1 63.7C155.8 63.5 154.2 64.4 154.2 64.4Z" fill="#D92C09"/>
<path d="M151.7 46.6C151.7 46.6 152 49.8 151.8 50.6C151.6 51.4 151.2 53.9 151.7 56.3C152.2 58.7 154.1 64.6 154.1 65C154.2 65.4 158.3 68.1 158.6 68.1C158.9 68.1 159.1 67.6 159.1 67.6C159.1 67.6 156.6 64.5 156.5 63.4C156.4 62.2 155.9 53 156.5 52.5C157.1 51.9 157.2 48.5 157.2 48.1C157.1 47.7 151.8 46 151.7 46.6Z" fill="#F7A98F"/>
<path d="M160.8 48.1C160.8 48.1 161.2 50.5 160.9 51.2C160.6 51.9 159.7 52.5 159 55.5C158.4 58.5 158.3 63 158.3 63C158.3 63 157.6 63.8 157.7 64C157.8 64.2 161.1 67.6 161.5 67.8C161.9 68 162.2 68 162.2 68C162.2 68 160.5 65.2 160.8 63.9C161.1 62.6 165.8 52.6 166.4 51.2C167 49.8 166.4 47.7 166.4 47.7L160.8 48.1Z" fill="#F7A98F"/>
<path d="M153.6 29C152.9 29.7 146.4 40.7 146.3 41.7C146.2 42.7 152.2 44.9 152.9 45.3C153.6 45.7 163.1 49.3 166.3 47.5C169.5 45.6 170.3 38.3 170.3 38.3C170.3 38.3 165.2 30.1 162.9 28C160.6 26 158.5 26.5 158.5 26.5C158.5 26.5 153.9 28.6 153.6 29Z" fill="#D92C09"/>
<path d="M147 40.1C145.6 39.9 145.4 42.1 144.9 42.7C144.6 43.1 143.9 43 144.2 43.7C144.3 44.2 145.2 44.5 145.6 44.6C146.2 44.8 146.8 44.7 147.4 45C148 45.3 148.4 45.9 149.1 46.1C149.5 46.3 149.9 46.3 150.3 46.5C150.8 46.8 151.3 47.4 151.8 47.7C152.8 48.4 154 48.7 155.2 48.8C155.9 48.9 156.7 48.7 157.4 48.9C158.1 49 158.6 49.5 159.2 49.8C160.2 50.3 161.4 50.1 162.4 49.9C163.4 49.7 164.2 49.1 165.1 48.9C166.2 48.7 167.3 48.6 168.2 47.9C169 47.3 169 46.7 169.3 45.8C169.6 44.9 170.4 44.4 171.1 43.8C172.1 42.8 172.7 41.8 172 40.4C171.6 39.7 171.8 38.9 171.5 38.1C171.2 37.3 170.6 37.3 169.8 37C169 36.6 168.7 36.7 169 37.7C169.4 38.8 169.7 39.3 168.8 40.3C168.2 41 167.5 41.5 167.3 42.4C167 43.5 167.2 43.7 166.1 44.1C165.2 44.5 164.7 44.9 164.2 45.6C163.1 46.8 161.5 47.3 160.2 46.5C159.7 46.2 159.1 46 158.6 46C157.8 46 156.6 46.4 155.9 45.7C155.5 45.3 155.6 44.9 155.3 44.5C155 44.2 154.5 44.1 154 44.1C153 44.1 152.4 44.3 151.7 43.5C150.9 42.6 150.1 42.3 148.8 42.1C147.8 41.9 147.1 41.9 147.1 40.8C147.3 40.4 147.2 40.1 147 40.1Z" fill="#F7931E"/>
<path d="M153.3 28.9L153.6 30C153.6 30 155.2 30.1 157 28.9C158.9 27.7 159.1 26.3 159.1 26.3L153.5 28.6L153.3 28.9Z" fill="#DC6501"/>
<path d="M153.6 29.9C153.6 29.9 152.4 32.2 151.4 33.6C150.4 34.9 148.8 35.2 147.6 35.9C146.4 36.6 145.1 39 145.1 39.5C145.1 39.5 143.8 39.7 143.3 39.9C142.9 40.1 141.8 40.7 141.8 40.7C141.8 40.7 143.7 37.4 144.9 36.2C146.1 35 150.1 34.2 150.5 33.9C150.9 33.6 153.1 29.3 153.2 29.3C153.3 29.3 153.6 29.9 153.6 29.9Z" fill="#F7931E"/>
<path d="M149.8 24.1C149.5 24.6 151.5 25.8 151.6 26.1C151.8 26.4 151.7 27.6 152.1 27.9C152.6 28.3 153.7 29 156.7 27.8C159.7 26.6 160.5 24.3 160.8 22.1C161.1 19.9 161 19.8 161 19.8L149.9 23.9L149.8 24.1Z" fill="#D92C09"/>
<path d="M146.8 18.9C145.9 19.3 145.1 20.2 144.3 20.8C143.7 21.2 143.7 22.2 143.9 22.8C144.4 23.9 145.6 22.9 146.1 23.6C146.5 24 146.8 24.9 147.8 25.4C148.8 25.8 151 25.3 151.4 24.9C151.8 24.5 153.4 24.5 153.9 24.4C154.4 24.3 157.3 23.4 159 22.5C160.7 21.6 161.4 20.2 161.8 19.4C162.2 18.6 161.9 17.6 162.3 17.2C162.7 16.8 162.1 14.4 161.9 14.1C161.6 13.8 158.4 13.7 158.2 13.9C158 14.1 146.9 18.9 146.8 18.9Z" fill="#F7931E"/>
<path d="M171.8 31.1C171.7 31.2 171.6 31.3 171.7 31.6C171.7 31.9 171.7 32.3 171.7 32.6C171.7 32.8 171.6 33.3 171.4 33.3C171.2 33.4 171.1 32.7 171.1 32.5C171 32 170.8 31.5 170.6 31.1C170.5 30.8 170.2 30.5 170.1 30.1C170.3 29.8 170.3 29.5 170.4 29.1C170.5 28.8 170.7 28.6 170.8 28.3C171 28.4 171.2 28.5 171.5 28.5C171.8 28.6 172.1 28.7 172.5 28.8C172.9 29 173.4 29.1 173.8 29.3C173.9 29.3 174.3 29.5 174 29.7C174 29.8 174.1 29.9 174.1 30C174.1 30.1 174 30.1 174 30.2C174 30.3 174.1 30.4 174.1 30.5C174.1 30.6 174 30.7 173.9 30.7C174.1 31 174 31.4 174 31.8C174 32 174 32.3 174.1 32.5C174.1 32.7 174.2 32.8 174.2 33C174.1 33.3 173.8 33 173.8 32.8C173.6 32.5 173.5 32.2 173.4 31.9C173.3 31.7 173.3 31.5 173.2 31.4C173 31.3 172.8 31.2 172.5 31.2C172.1 31.1 171.9 31.1 171.8 31.1Z" fill="#F7A98F"/>
<path d="M133.4 22.1C133.6 22.7 134.4 22.9 134.7 23.3C134.8 23.5 134.6 23.8 134.7 24C134.8 24.2 135 24.2 135.2 24.4C135.3 24.6 135.4 24.7 135.4 24.9C135.4 25 135.4 25.2 135.5 25.2C135.1 25.2 134.8 25.3 134.4 25.5C133.8 25.7 133.2 25.9 132.5 26C132.3 26 132.1 26.1 131.8 26.1C131.7 26.1 131.4 26 131.6 25.9C131.8 25.7 132.2 25.6 132.5 25.5C132.2 25.6 131.7 25.6 131.3 25.7C131.1 25.7 130.8 25.6 131 25.4C130.8 25.4 130.6 25.2 130.8 25C130.9 24.8 131.3 24.8 131.5 24.7C131.8 24.6 132.1 24.6 132.3 24.4C132 24.4 131.6 24.3 131.2 24.2C131 24.2 130.7 24.1 130.6 24C130.4 23.9 130.4 23.6 130.7 23.6C131 23.6 131.3 23.6 131.6 23.6C131.9 23.6 132.2 23.6 132.5 23.6C132.6 23.6 133 23.6 133.1 23.5C133.2 23.4 133.1 23.1 133 23C132.9 22.8 132.6 22.4 132.6 22.1C132.6 21.9 132.8 21.5 133 21.5C133.3 21.5 133.3 21.8 133.4 22.1Z" fill="#F7A98F"/>
<path d="M153 29C153 29 149.4 30.4 149.3 30.6C149.2 30.8 149.5 32.2 149.7 32.5C149.9 32.8 151.4 33.1 151.4 33.1L153.2 29.5C153.2 29.5 152.4 32.1 152.3 32.9C152.2 33.6 151.9 34.9 152.4 34.9C152.9 34.8 153.6 34.2 154.1 34.3C154.5 34.4 156.1 34 156.1 33.6C156 33.1 153.7 29 153.7 29H153Z" fill="#DC6501"/>
<path d="M152.8 28.2C152.6 28.5 152.9 29.7 153 29.8C153.2 29.9 153.6 30 153.6 30C153.6 30 154 28.6 153.9 28.4C153.7 28.1 152.8 28.2 152.8 28.2Z" fill="#F7931E"/>
<path d="M153.2 33.5C153.3 32.2 153.4 30.9 153.6 29.5C153.6 29.3 153.4 29.3 153.3 29.5C153.1 30.8 153 32.1 152.9 33.5C152.9 33.6 153.1 33.6 153.2 33.5Z" fill="#F7931E"/>
<path d="M151.2 31.5C151 31.7 150.6 32.2 150.8 32.5C150.9 32.7 151.2 32.6 151.4 32.5C151.6 32.4 151.6 32.1 151.7 31.9C151.8 31.6 152 31.4 152.1 31.1C152.4 30.5 152.8 29.9 153.3 29.4C153.4 29.3 153.2 29.1 153.1 29.2C152.6 29.7 152.3 30.3 151.9 31C151.7 31.3 151.6 31.6 151.4 31.9C151.3 32 151.2 32.4 151 32.3C150.8 32.2 151.3 31.7 151.3 31.6C151.5 31.6 151.3 31.4 151.2 31.5Z" fill="#F7931E"/>
<path d="M154.1 31.8C154 31.1 153.8 30.5 153.7 29.8C153.7 29.6 153.4 29.7 153.4 29.9C153.6 30.6 153.7 31.2 153.8 31.9C153.9 32 154.1 32 154.1 31.8Z" fill="#F7931E"/>
<path d="M153.7 28.8C153.8 29.2 153.9 29.6 154 30.1C154 30.3 154.3 30.2 154.3 30C154.2 29.6 154.1 29.2 154 28.7C153.9 28.6 153.6 28.7 153.7 28.8Z" fill="#F7931E"/>
<path d="M147.2 21.7C146.9 22.2 146.6 22.7 146.4 23.2C146.3 23.4 146.6 23.5 146.6 23.3C146.8 22.8 147.1 22.3 147.4 21.8C147.6 21.7 147.3 21.6 147.2 21.7Z" fill="#DC6501"/>
<path d="M156.7 20.3C157 20.9 157.2 21.5 157.5 22.1C157.6 22.3 157.8 22.2 157.8 22C157.5 21.4 157.3 20.8 157 20.2C156.9 20.1 156.6 20.2 156.7 20.3Z" fill="#DC6501"/>
<path d="M157.6 20C157.9 20.3 158.2 20.6 158.4 21C158.5 21.1 158.7 21 158.6 20.9C158.4 20.5 158.1 20.2 157.7 19.9C157.6 19.7 157.4 19.9 157.6 20Z" fill="#DC6501"/>
<path d="M147.7 41.8C147.2 42.4 146.8 43.1 146.3 43.7C146.2 43.8 146.4 44 146.5 43.8C147 43.2 147.4 42.5 147.9 41.9C148 41.8 147.8 41.7 147.7 41.8Z" fill="#DC6501"/>
<path d="M148.8 42.2C148.7 42.7 148.6 43.2 148.4 43.6C148.4 43.8 148.6 43.8 148.7 43.7C148.8 43.2 148.9 42.7 149.1 42.3C149.1 42.1 148.8 42 148.8 42.2Z" fill="#DC6501"/>
<path d="M165.3 44.8C165.6 45.6 165.9 46.5 166.2 47.3C166.3 47.5 166.5 47.4 166.5 47.2C166.2 46.4 165.9 45.5 165.6 44.7C165.5 44.5 165.2 44.6 165.3 44.8Z" fill="#DC6501"/>
<path d="M155.4 44.7C155.2 45.5 155 46.3 154.8 47.1C154.8 47.3 155 47.3 155.1 47.2C155.3 46.4 155.5 45.6 155.7 44.8C155.7 44.6 155.4 44.5 155.4 44.7Z" fill="#DC6501"/>
<path d="M156.1 46.3C156.1 46.6 156 46.9 156 47.2C156 47.4 156.2 47.4 156.3 47.3C156.3 47 156.4 46.7 156.4 46.4C156.4 46.2 156.2 46.1 156.1 46.3Z" fill="#DC6501"/>
<path d="M169.3 38.9C169.9 39.8 170.6 40.6 171.3 41.5C171.4 41.6 171.6 41.4 171.5 41.3C170.8 40.5 170.1 39.7 169.5 38.8C169.5 38.6 169.2 38.7 169.3 38.9Z" fill="#DC6501"/>
<path d="M168.6 40.8C169 41.4 169.5 41.9 169.9 42.5C170 42.6 170.2 42.4 170.1 42.3C169.6 41.8 169.2 41.2 168.8 40.7C168.7 40.5 168.5 40.7 168.6 40.8Z" fill="#DC6501"/>
<path d="M146 20.3C146 20.3 146.7 18.4 147.5 17.6C148.3 16.8 150.9 16.6 152 16.4C153.1 16.2 154.8 15.2 154.8 15.2C154.8 15.2 156.9 13.1 158 13.6C159.1 14.1 159.6 14.6 159.6 15.4C159.5 16.2 159.2 18.7 156.1 20.5C153 22.1 146.1 23.1 146 20.3Z" fill="#F7A98F"/>
<path d="M147.2 4.7C147.2 4.7 146.3 5.5 146.3 6.5C146.2 7.5 147.4 10.9 148 12.2C148.6 13.5 149.1 15 149.1 15.6C149.1 16.2 148 17.2 148 17.2C148 17.2 149.6 17.2 150.3 17.4C150.9 17.6 151.4 17 151.7 16.2C152 15.4 155.2 15.2 155.5 15.2C155.8 15.1 156.9 15 157.2 14.1C157.2 14.1 155.9 12.6 155.8 11.8C155.7 11 155.5 7 155.3 5.7C155.1 4.4 152.7 1.8 150 2.1C147.1 2.5 147.2 4.7 147.2 4.7Z" fill="#F9D275"/>
<path d="M149.5 9.9C149.5 9.9 149.8 11.7 150.2 12.5C150.6 13.3 151.4 15.5 151.3 16C151.2 16.6 150.8 17.3 150.8 17.3C150.8 17.3 153.6 17.8 154.2 17.5C154.8 17.1 155.3 15.3 155.3 15.3C155.3 15.3 153.7 14.7 153 11.9C152.3 9.1 149.5 9.9 149.5 9.9Z" fill="#F7A98F"/>
<path d="M149.1 5.7C149.1 5.7 149.9 4.3 151.2 4.8C152.5 5.3 152.6 6.1 153.3 6.8C153.9 7.5 154.5 7.8 154.5 7.8C154.5 7.8 154.5 9.5 154.3 10.4C154.1 11.3 153.5 12.3 152.9 12.4C152.3 12.6 150.5 12.2 150.1 11.6C149.6 11 149.3 10 149.3 10C149.3 10 148.8 10.1 148.3 9.4C147.7 8.7 147.8 8.2 148 8.1C148.2 8 149.4 8.4 149.4 8.4C149.4 8.4 149.7 8.6 149.7 8.1C149.5 7.6 148.9 5.9 149.1 5.7Z" fill="#F7A98F"/>
<path d="M151.2 8.4C151.2 8.6 151.1 8.9 150.8 8.9C150.6 8.9 150.3 8.8 150.3 8.5C150.3 8.3 150.4 8 150.7 8C150.9 8.1 151.1 8.2 151.2 8.4Z" fill="#001C31"/>
<path d="M153.8 7.8C153.9 8 153.8 8.3 153.6 8.4C153.4 8.5 153.1 8.4 153 8.2C152.9 8 153 7.7 153.2 7.6C153.4 7.5 153.7 7.6 153.8 7.8Z" fill="#001C31"/>
<path d="M153.4 10L151.9 10.4C151.9 10.4 152.1 11.3 153 11C153.4 10.8 153.4 10 153.4 10Z" fill="white"/>
<path d="M149.1 10.1C149.3 10.7 149.7 11.4 150.2 11.8C150.9 12.5 152.4 12.9 153.3 12.3C153.4 12.2 153.3 12 153.2 12.1C152.3 12.6 150.8 12.1 150.2 11.4C149.8 11 149.5 10.5 149.3 10C149.3 9.9 149.1 10 149.1 10.1Z" fill="#7C4415"/>
<path d="M155.4 18.9C155.9 19.2 156.2 19.6 156.4 20.1C156.5 20.2 156.7 20.2 156.6 20C156.4 19.4 156 19 155.5 18.6C155.4 18.6 155.3 18.8 155.4 18.9Z" fill="#7C4415"/>
<path d="M149.5 22C149.6 21.8 149.7 21.6 149.8 21.4C149.8 21.2 149.6 21.2 149.6 21.3C149.6 21.5 149.5 21.6 149.4 21.8C149.2 22 149.4 22.2 149.5 22Z" fill="#7C4415"/>
<path d="M159 16.3C159.1 16.3 159.2 16.4 159.3 16.4C159.3 16.5 159.4 16.5 159.5 16.4C159.6 16.4 159.6 16.3 159.5 16.2C159.4 16.1 159.3 16 159.1 15.9C159 15.9 159 15.9 158.9 16C158.9 16.2 158.9 16.3 159 16.3Z" fill="#7C4415"/>
<path d="M151.4 16.4C151.8 16.4 152.3 16.4 152.7 16.3C152.9 16.3 153.2 16.2 153.3 16.3C153.4 16.3 153.5 16.4 153.6 16.5C154 16.6 154.2 16.3 154.1 15.9C154 15.8 153.8 15.9 153.9 16C153.8 16.1 153.8 16.1 153.7 16.2L153.6 16.1H153.5C153.3 16 153.1 16.1 153 16.1C152.5 16.1 152 16.2 151.5 16.2C151.3 16.1 151.3 16.4 151.4 16.4Z" fill="#7C4415"/>
<path d="M151.1 25.3C151.8 25.7 152.6 26.1 153.3 26.5C153.4 26.6 153.5 26.6 153.6 26.7C153.7 26.8 153.7 26.8 153.8 26.8H153.7C153.6 26.8 153.4 26.8 153.3 26.7C152.9 26.6 152.5 26.3 152.1 26.1C152 26.1 151.9 26.1 151.9 26.2C152 26.5 152.3 26.7 152.6 26.9C153 27.2 153.4 27.4 153.9 27.6C154 27.7 154.2 27.5 154 27.4C153.7 27.3 153.4 27.1 153.1 26.9C152.8 26.7 152.2 26.4 152.1 26.1C152 26.1 152 26.2 151.9 26.2C152.5 26.5 153.3 27.2 154 26.8L154.1 26.7C154.1 26.6 154.1 26.6 154 26.5C153.8 26.3 153.3 26.1 153 26C152.4 25.7 151.8 25.3 151.2 25C151 25 150.9 25.3 151.1 25.3Z" fill="white"/>
<path d="M162.4 22.9C162.6 22.7 162.9 22.6 163.1 22.6C163.3 22.6 163.2 22.3 163 22.4C162.7 22.5 162.4 22.6 162.2 22.8C162.1 22.8 162.2 23 162.4 22.9Z" fill="#7C4415"/>
<path d="M153.4 44.3C156.8 40.3 158.6 35.1 158.5 29.9C158.5 29.7 158.2 29.7 158.3 29.9C158.5 35.1 156.7 40.2 153.3 44.1C153.1 44.2 153.3 44.4 153.4 44.3Z" fill="white"/>
<path d="M158.4 27.8C159 28.8 159.6 29.9 160 31C160.4 32.2 160.5 33.4 160.5 34.6C160.5 37.1 160 39.5 159.4 42C159.4 42.2 159.6 42.2 159.6 42.1C160.2 39.6 160.7 37.1 160.7 34.5C160.7 33.3 160.5 32.1 160.2 31C159.8 29.8 159.3 28.8 158.6 27.7C158.5 27.6 158.3 27.7 158.4 27.8Z" fill="white"/>
<path d="M161.3 28.4C164.4 32 166.7 36.4 167.9 41C167.9 41.2 168.2 41.1 168.1 40.9C166.9 36.2 164.7 31.8 161.5 28.2C161.4 28.1 161.2 28.3 161.3 28.4Z" fill="white"/>
<path d="M147.6 39.9C147.7 40.4 148 41.1 148.6 41.1C149.3 41.2 150.1 40.5 150.6 40.1C151.9 39.1 153.1 38 154.1 36.6C154.2 36.5 154 36.3 153.9 36.5C153.1 37.6 152.2 38.5 151.2 39.4C150.7 39.8 150.1 40.2 149.6 40.6C149.2 40.8 148.7 41.1 148.3 40.8C148 40.6 147.9 40.2 147.9 39.9C147.8 39.7 147.5 39.8 147.6 39.9Z" fill="white"/>
<path d="M158.9 67.5C159.2 67.9 159.6 68.2 159.9 68.6C160.1 68.9 160.4 69.2 160.7 69.3C160.9 69.3 160.9 69.1 160.8 69.1C160.4 69 160.1 68.5 159.9 68.3C159.6 68 159.3 67.7 159.1 67.4C159 67.2 158.8 67.4 158.9 67.5Z" fill="white"/>
<path d="M173.1 30.5C173.2 30.6 173.3 30.7 173.5 30.7C173.6 30.8 173.7 30.8 173.8 30.9C174 31 174.1 30.8 174.2 30.7C174.4 30.3 174 30 173.7 29.8C173.5 29.7 173.4 30 173.6 30C173.8 30.1 174.1 30.3 174 30.6C174 30.7 174 30.7 173.9 30.7C173.8 30.7 173.8 30.6 173.7 30.6C173.6 30.5 173.4 30.4 173.3 30.4C173.1 30.2 172.9 30.4 173.1 30.5Z" fill="#7C4415"/>
<path d="M174.1 30.3C174.2 30.1 174.2 29.9 174.1 29.7C174 29.5 173.9 29.4 173.7 29.4C173.5 29.4 173.5 29.6 173.6 29.7C173.9 29.8 173.9 30.1 173.8 30.3C173.8 30.4 174.1 30.4 174.1 30.3Z" fill="#7C4415"/>
<path d="M142.2 25.9C142.5 26 142.8 26.1 143 26.3C143.1 26.4 143.3 26.2 143.2 26.1C142.9 25.9 142.6 25.7 142.3 25.6C142.1 25.7 142 25.9 142.2 25.9Z" fill="#7C4415"/>
<path d="M133.1 23.3C133.1 23.6 133.1 23.9 133.2 24.2C133.3 24.5 133.6 24.6 133.8 24.6C134 24.6 134 24.4 133.9 24.4C133.6 24.3 133.4 24.2 133.4 24C133.3 23.8 133.3 23.6 133.3 23.3C133.3 23.2 133.1 23.2 133.1 23.3Z" fill="#7C4415"/>
<path d="M131.2 25.4L131.5 25.3C131.6 25.3 131.7 25.2 131.9 25.2C132.1 25.1 132.3 25 132.5 25C132.6 24.9 132.5 24.7 132.4 24.8C132 25 131.7 25.1 131.3 25.2C131.1 25.3 130.9 25.4 131 25.6C131.1 25.6 131.3 25.5 131.2 25.4Z" fill="#7C4415"/>
<path d="M132.2 24.1C132.2 24.7 132.6 25.1 132.8 25.6C132.9 25.7 133.1 25.7 133 25.5C132.8 25 132.4 24.6 132.4 24.1C132.4 23.9 132.1 23.9 132.2 24.1Z" fill="#7C4415"/>
<path d="M154.5 50.8C154.6 51.2 154.8 51.6 155.2 51.9C155.3 52 155.5 51.8 155.4 51.7C155.1 51.5 154.9 51.1 154.8 50.7C154.7 50.6 154.5 50.7 154.5 50.8Z" fill="#7C4415"/>
<path d="M164.5 50.4C164.4 50.9 164.4 51.4 164.6 51.8C164.7 51.9 164.9 51.9 164.8 51.7C164.6 51.3 164.6 50.8 164.7 50.4C164.8 50.3 164.6 50.3 164.5 50.4Z" fill="#7C4415"/>
<path d="M154.2 64C154 64.4 154.2 64.9 154.6 65.1C154.7 65.2 154.9 65 154.7 64.9C154.4 64.8 154.3 64.4 154.4 64.2C154.5 63.9 154.3 63.8 154.2 64Z" fill="#7C4415"/>
<path d="M158.6 62.6C158.3 62.8 158.2 63.3 158.5 63.6C158.6 63.7 158.8 63.5 158.7 63.4C158.6 63.2 158.6 62.9 158.8 62.8C158.9 62.7 158.8 62.5 158.6 62.6Z" fill="#7C4415"/>
<path d="M152.8 9.9C152.9 9.8 152.9 9.6 152.9 9.4C152.9 9.2 152.6 9.2 152.7 9.4C152.7 9.5 152.7 9.6 152.6 9.7C152.5 9.8 152.7 10 152.8 9.9Z" fill="#7C4415"/>
<path d="M150.1 8.5C150.4 8.2 150.8 8.1 151.2 8.1C151.4 8.1 151.4 7.9 151.2 7.9C150.7 7.8 150.2 8 149.9 8.3C149.8 8.4 150 8.6 150.1 8.5Z" fill="#001C31"/>
<path d="M152.8 7.8C153.1 7.6 153.4 7.5 153.7 7.5C153.9 7.5 153.9 7.3 153.8 7.3C153.4 7.2 153 7.4 152.7 7.6C152.5 7.7 152.6 7.9 152.8 7.8Z" fill="#001C31"/>
<path d="M149.9 7.5C150.2 7.2 150.6 7.1 150.9 7.2C151.1 7.2 151.1 7 150.9 7C150.5 6.9 150 7.1 149.7 7.4C149.6 7.4 149.7 7.6 149.9 7.5Z" fill="#001C31"/>
<path d="M152.6 6.8C152.9 6.6 153.2 6.6 153.5 6.7C153.7 6.7 153.7 6.5 153.6 6.5C153.2 6.4 152.9 6.5 152.5 6.6C152.3 6.6 152.5 6.9 152.6 6.8Z" fill="#001C31"/>
<path d="M147.2 4.8C147.9 4.6 148.6 4.8 149.1 5.4C149.2 5.5 149.4 5.3 149.3 5.2C148.8 4.6 147.9 4.3 147.1 4.5C147 4.6 147.1 4.9 147.2 4.8Z" fill="white"/>
<path d="M148.6 4.8C149.3 3.4 151.5 3.1 152.7 4.2C153.2 4.7 153.4 5.4 153.5 6.1C153.6 6.4 153.7 6.7 153.8 7.1C154 7.5 154.2 7.8 154.3 8.2C154.7 9.8 154 11.4 154.2 12.9C154.3 13.7 154.5 15.3 155.5 15.4C156.3 15.5 157.5 14.4 156.7 13.7C156.6 13.6 156.4 13.8 156.5 13.9C157.1 14.4 156.2 15.1 155.7 15.2C154.9 15.3 154.6 14.3 154.5 13.6C154.2 12.2 154.6 10.7 154.6 9.3C154.6 8.7 154.5 8.1 154.3 7.6C154 6.9 153.8 6.3 153.6 5.6C153.3 4.5 152.7 3.8 151.5 3.5C150.3 3.3 149 3.7 148.4 4.8C148.3 4.8 148.6 5 148.6 4.8Z" fill="white"/>
<path d="M148.2 4.8C147.7 5.8 147.2 6.9 147.4 8C147.6 8.6 147.9 9.2 148.1 9.8C148.3 10.4 148.5 11 148.7 11.6C148.9 12.2 149.1 12.8 149.2 13.5C149.4 14.1 149.6 14.8 149.5 15.4C149.4 15.9 149.2 16.9 148.6 17.1C148.4 17.2 148.3 17.2 148.2 17C148.1 16.8 148.2 16.8 148.4 16.6L148.6 16.4V16.6C148.6 16.8 148.9 16.8 148.9 16.6C148.9 16.4 149 16 148.6 16.1C148.3 16.2 148 16.6 147.9 16.9C147.9 17.2 148.1 17.3 148.4 17.3C148.8 17.3 149.1 17.2 149.3 16.8C149.6 16.4 149.8 15.8 149.9 15.3C150 14.7 149.8 14 149.6 13.4C149.3 12 148.8 10.7 148.3 9.4C148 8.7 147.6 7.9 147.6 7.1C147.6 6.2 148 5.5 148.4 4.7C148.5 4.8 148.3 4.6 148.2 4.8Z" fill="white"/>
<path d="M106.6 40.1H79.4V70.4H106.6V40.1Z" fill="#89BEE9"/>
<path d="M125.3 51.3H124.2V67.6H125.3V51.3Z" fill="#6CAEE3"/>
<path d="M125.4 50.6H118.7C118.1 50.6 117.7 50.1 117.7 49.6V48.4C117.7 47.8 118.2 47.4 118.7 47.4H125.4C126 47.4 126.4 47.9 126.4 48.4V49.6C126.4 50.2 126 50.6 125.4 50.6Z" fill="#6CAEE3"/>
<path d="M125.5 50.5H116.6V51.6H125.5V50.5Z" fill="#A7CEEE"/>
<path d="M110.4 51.3H109.3V67.6H110.4V51.3Z" fill="#6CAEE3"/>
<path d="M110.2 65.7C110.2 65.7 107.2 68 107.3 68.2C107.4 68.4 107.6 69 108.4 69C109.2 69 114.5 67.5 114.7 66.7C114.9 65.9 114.4 64.4 114.4 64.4L110.2 65.7Z" fill="#001C31"/>
<path d="M109.9 55.2C109.9 55.2 111.3 64 111.2 64.5C111.1 65 108.3 67 108.9 66.9C109.6 66.8 114.2 64.6 114.2 64.6L114 54.2L109.9 55.2Z" fill="#F7A98F"/>
<path d="M114 66.1C114 66.1 111 68.4 111.1 68.6C111.2 68.8 111.4 69.4 112.2 69.4C113 69.4 118.3 67.9 118.5 67.1C118.7 66.3 118.2 64.8 118.2 64.8L114 66.1Z" fill="#001C31"/>
<path d="M113.7 55.5C113.7 55.5 115.1 64.3 115 64.8C114.9 65.3 112.1 67.3 112.7 67.2C113.4 67.1 118 64.9 118 64.9L117.8 54.5L113.7 55.5Z" fill="#F7A98F"/>
<path d="M108.3 43.9C108.1 45.9 109.3 58.7 109.3 58.7C109.3 58.7 111.9 59.5 114 58.5C114 58.5 116.9 60.3 119.2 59C119.2 59 120.9 49.8 121 48.9C121.1 48.1 120.8 47.5 120.8 47.5H125.8C125.8 47.5 126.7 46.4 126.3 44.2C125.8 42 125.2 40.9 125.2 40.9H111.4C111.3 40.9 108.5 41.9 108.3 43.9Z" fill="#27A77E"/>
<path d="M113.2 24.9C112.1 25.7 109.9 29.5 110 30.1C110.1 30.7 110.7 32.1 111.7 32.1C113.3 32.1 114.9 31.1 114.9 31.1L115.3 28.6L116.8 25.4L113.2 24.9Z" fill="#F7A98F"/>
<path d="M115.1 25.9C114.9 26.8 115.9 32 116.3 32.2C116.8 32.4 125.2 34.5 126.1 33C127.1 31.6 127.2 23.2 126.6 22.7C125.9 22.2 119.4 21.3 118.6 21.5C117.7 21.7 115.8 23.1 115.1 25.9Z" fill="#001C31"/>
<path d="M125.3 23.4C123.9 24.2 124.9 30.4 124.6 30.2C124.3 30 119.8 31.4 119.8 31.4C119.8 31.4 122 32.6 122.2 32.5C122.4 32.4 127.8 33.3 128.1 32.7C128.5 32.1 128.3 24 127.4 22.9C126.6 21.7 126.4 22.8 125.3 23.4Z" fill="#F7A98F"/>
<path d="M117.3 10.1C117.2 10.6 116.9 13.1 116.9 13.3C116.9 13.6 121.3 18.7 121.7 19.5C122.1 20.3 123.5 24.2 124.8 24.6C126.1 25 128 23.4 128 23.4C128 23.4 126.4 22.1 125.8 19.8C125.8 19.8 127.5 23.2 128.3 23.4C128.3 23.4 126.5 19.3 126.2 17.8C125.9 16.2 124.9 11 122.9 10C120.9 8.9 117.3 9.9 117.3 10.1Z" fill="#7C4415"/>
<path d="M118.7 18.8C119 19.7 119.5 21.7 119.1 22.3C118.7 22.8 122.6 22.8 122.9 22.4C123.2 22 121.3 18.5 121.4 18C121.6 17.4 118.7 18.8 118.7 18.8Z" fill="#F7A98F"/>
<path d="M118.1 12C118.1 12 119.3 11.1 120.5 11.6C121.7 12.1 122.3 13.2 122.4 13.7C122.5 14.3 122.7 15.9 122.7 15.9C122.7 15.9 121.8 17.9 121.5 18.4C121.1 18.8 118.5 20.7 117.9 20.4C117.3 20.1 116.2 18.2 116.1 17.4C116 16.6 117.6 12 117.6 12C117.6 12 117.9 11.8 118.1 12Z" fill="#F7A98F"/>
<path d="M118.6 14.8C118.4 15.5 117.6 15.9 116.9 15.7C116.2 15.5 115.8 14.7 116 14C116.2 13.3 116 13 117.5 13.4C118.2 13.7 118.8 14.1 118.6 14.8Z" fill="#A1CDF0"/>
<path d="M119.5 15.3C119.3 16 119.8 16.8 120.5 16.9C121.2 17.1 122 16.6 122.1 15.9C122.3 15.2 122.6 15 121.1 14.6C120.4 14.5 119.7 14.6 119.5 15.3Z" fill="#A1CDF0"/>
<path d="M118.6 14.6C119 14.6 119.4 14.7 119.6 15C119.7 15.1 119.9 14.9 119.8 14.8C119.5 14.5 119.1 14.3 118.6 14.3C118.4 14.4 118.4 14.6 118.6 14.6Z" fill="#A1CDF0"/>
<path d="M122.2 15.3C122.4 15.5 122.5 15.8 122.6 16C122.7 16.1 122.9 16 122.8 15.9C122.7 15.6 122.5 15.4 122.3 15.1C122.2 15 122.1 15.2 122.2 15.3Z" fill="#A1CDF0"/>
<path d="M95.8 30.8C95 31 93.4 30 92.6 29.6C91.2 29 89.9 28.3 88.4 28.3C86.8 28.2 85.4 28.8 84.5 30.1C83.9 30.9 83.7 32.1 82.9 32.8C81.4 34.2 77.7 34.8 77 37.1C76.5 38.8 78.5 39.4 79.9 39.5C81.3 39.5 82.7 39.4 84 39C85.9 38.4 87.5 37.2 89.4 36.5C91.3 35.9 94.6 35.6 95.6 33.6C95.9 33 95.5 32.7 95.6 32.2C95.7 31.9 96 31.4 95.8 30.8Z" fill="#C7E1F6"/>
<path d="M90.5 40.2C90.1 38.6 88.6 38 90.7 36.7C91.4 36.2 92.5 36.1 93.1 35.5C93.7 34.9 93.6 34.2 93.9 33.4C94.6 31.3 96.6 29 99 29.1C100.2 29.1 100.9 29.9 101.7 30.7C102.5 31.4 103.6 32.1 104.2 32.9C105.1 34.2 104.6 34.9 106.3 35.2C107.5 35.4 109 35.3 110 36.3C109.5 36.8 108.8 36.8 108.1 37C106.6 37.5 105.2 38.2 103.7 38.8C102.4 39.4 101 40 99.6 40.2C97.8 40.5 95.5 40.5 93.6 40.5C92.9 40.5 91.1 40.6 90.5 40.2Z" fill="#2ACC98"/>
<path d="M103.7 20.7H101.9V21.5H103.7V20.7Z" fill="#A1CDF0"/>
<path d="M105.9 20.7H104.1V21.5H105.9V20.7Z" fill="#A1CDF0"/>
<path d="M117.8 14.7C117.7 14.9 117.5 15 117.2 14.9C117 14.8 116.9 14.6 117 14.3C117.1 14.1 117.3 14 117.6 14.1C117.8 14.3 117.9 14.5 117.8 14.7Z" fill="#5183AA"/>
<path d="M120.9 15.6C120.9 15.8 120.6 16 120.4 15.9C120.2 15.8 120 15.6 120.1 15.4C120.2 15.2 120.4 15 120.6 15.1C120.8 15.2 121 15.4 120.9 15.6Z" fill="#5183AA"/>
<path d="M119.2 17.8L117.1 17.1C117.1 17.1 116.6 18.4 117.9 18.7C118.6 18.8 119.2 17.8 119.2 17.8Z" fill="white"/>
<path d="M111.2 68.5C111.5 67.8 112.1 67.3 112.7 66.8C113.3 66.3 114 65.7 114.7 65.4C114.8 65.3 114.7 65.1 114.6 65.2C113.8 65.6 113.2 66.1 112.6 66.7C112 67.2 111.4 67.8 111.1 68.5C110.9 68.5 111.1 68.6 111.2 68.5Z" fill="#A1CDF0"/>
<path d="M120.2 45.7C120.4 46.5 120.6 47.3 120.8 48.1C120.8 48.2 121.1 48.2 121 48C120.8 47.2 120.6 46.4 120.4 45.6C120.3 45.5 120.1 45.5 120.2 45.7Z" fill="white"/>
<path d="M116.2 40.8C115.1 40.7 113.5 40.9 112.8 41.9C112.5 42.3 112.5 42.9 112.5 43.4C112.5 44 112.5 44.6 112.6 45.2C112.8 48.7 113.2 52.2 113.6 55.7C113.7 56.6 113.8 57.6 113.9 58.5C113.9 58.6 114.1 58.6 114.1 58.5C113.8 56.2 113.6 53.9 113.3 51.6C113.1 49.8 112.9 48.1 112.8 46.3C112.7 45.2 112.6 44 112.7 42.9C112.8 41.3 114.9 41 116.2 41.1C116.4 41 116.4 40.8 116.2 40.8Z" fill="white"/>
<path d="M124.6 30.2C125.9 30.1 127.2 30.3 128.1 31.3C128.2 31.4 128.4 31.2 128.3 31.1C127.3 30.1 126 29.9 124.7 30C124.5 30 124.5 30.2 124.6 30.2Z" fill="#7C4415"/>
<path d="M111.4 28.3C111.5 28.4 111.7 28.4 111.8 28.5C111.9 28.6 112.1 28.4 112 28.3C111.9 28.2 111.7 28.1 111.5 28C111.4 28 111.4 28 111.4 28.1C111.3 28.3 111.4 28.3 111.4 28.3Z" fill="#7C4415"/>
<path d="M118.3 20.5C119 20.4 119.6 20.1 120.2 19.7C120.7 19.4 121.2 19 121.5 18.4C121.6 18.3 121.4 18.2 121.3 18.3C120.9 18.8 120.5 19.3 119.9 19.5C119.3 19.8 118.8 20 118.1 20.2C118.1 20.3 118.1 20.5 118.3 20.5Z" fill="#7C4415"/>
<path d="M117.2 64.9C117.5 64.7 117.5 64.4 117.4 64.1C117.4 64 117.2 64 117.2 64.2C117.2 64.4 117.3 64.7 117.1 64.8C117 64.8 117.1 65 117.2 64.9Z" fill="#7C4415"/>
<path d="M113.6 64.7C113.9 64.5 114 64.1 113.8 63.8C113.7 63.7 113.5 63.8 113.6 63.9C113.7 64.1 113.6 64.4 113.4 64.5C113.3 64.6 113.4 64.8 113.6 64.7Z" fill="#7C4415"/>
<path d="M124.7 26.8C124.9 26.2 125.2 25.7 125.7 25.3C125.8 25.2 125.6 25 125.5 25.1C125 25.5 124.7 26.1 124.5 26.7C124.4 26.9 124.6 27 124.7 26.8Z" fill="#7C4415"/>
<path d="M117.9 16.2C117.8 16.4 117.9 16.7 118 16.9C118.1 17 118.3 16.9 118.2 16.8C118.1 16.7 118 16.5 118.1 16.4C118.1 16.2 117.9 16.1 117.9 16.2Z" fill="#7C4415"/>
<path d="M117 14.3C117.4 14.4 117.7 14.5 118 14.8C118.1 14.9 118.3 14.7 118.2 14.6C117.9 14.3 117.5 14.1 117.1 14.1C116.9 14 116.8 14.2 117 14.3Z" fill="#5183AA"/>
<path d="M120 15.3C120.4 15.2 120.8 15.4 121.1 15.7C121.2 15.8 121.4 15.6 121.3 15.5C120.9 15.1 120.4 14.9 119.9 15.1C119.8 15.1 119.8 15.4 120 15.3Z" fill="#5183AA"/>
<path d="M117.4 13C117.9 13 118.3 13.1 118.7 13.4C118.8 13.5 118.9 13.3 118.8 13.2C118.4 12.9 117.9 12.8 117.4 12.8C117.3 12.7 117.3 13 117.4 13Z" fill="#001C31"/>
<path d="M120.5 13.9C121.1 13.9 121.6 14.1 121.9 14.5C122 14.6 122.2 14.4 122.1 14.3C121.7 13.9 121.1 13.6 120.5 13.6C120.3 13.6 120.3 13.9 120.5 13.9Z" fill="#001C31"/>
<path d="M118.2 12C119.1 10.6 120.9 10.3 122.2 11.4C123.4 12.4 123.6 14.5 123.7 15.9C123.8 17.6 123.7 19.2 123.5 20.9C123.4 22.2 123.2 23.7 124.3 24.6C125.5 25.5 127.2 24.6 127.8 23.5C127.9 23.4 127.7 23.2 127.6 23.4C127.2 24.1 126.5 24.5 125.7 24.7C124.8 24.9 124 24.4 123.7 23.5C123.4 22.7 123.6 21.8 123.6 21C123.7 20.2 123.8 19.4 123.8 18.6C123.9 17 123.8 15.4 123.5 13.8C123.2 12.5 122.7 11.3 121.4 10.8C120.1 10.3 118.6 10.8 117.9 12C117.9 12 118.1 12.1 118.2 12Z" fill="#DC6501"/>
<path d="M118 12C118.8 10.6 120.4 9.8 122 10.4C123.6 11 124.2 12.9 124.4 14.5C124.6 16.2 124.2 17.8 124 19.5C123.8 20.8 123.3 22.6 124.1 23.8C124.5 24.4 125.1 24.7 125.8 24.6C126.6 24.5 127.2 24.1 127.8 23.6C127.9 23.5 127.7 23.3 127.6 23.4C126.9 23.9 126.1 24.5 125.2 24.3C124.3 24.1 123.9 23.1 123.9 22.2C123.9 20.5 124.4 18.8 124.6 17.1C124.8 15.6 124.8 14 124.2 12.6C123.7 11.3 122.8 10.2 121.3 10C119.8 9.8 118.5 10.6 117.8 11.9C117.7 12 117.9 12.1 118 12Z" fill="#DC6501"/>
<path d="M117.8 11.9C117.9 11.2 118.2 10.6 118.8 10.2C118.9 10.1 118.8 9.9 118.7 10C118.1 10.5 117.7 11.1 117.6 11.9C117.5 12.1 117.8 12.1 117.8 11.9Z" fill="#DC6501"/>
<path d="M100.9 21.5C100.5 23 100.9 38.6 100.9 38.6H124.1C124.1 38.6 124.5 35.1 124.1 34.8C123.7 34.4 109 34.8 109 34.8C109 34.8 109 27 109 26.1C109 25.1 116.5 24.7 116.8 25.4C117.1 26.1 116.8 28.3 116.8 28.3C116.8 28.3 124 28.6 124.6 28.3C124.6 28.3 124.6 22.8 124.6 22.3C124.6 21.8 124.6 21.6 124.6 21.6C124.6 21.6 101 21 100.9 21.5Z" fill="#016FC2"/>
<path d="M124.6 38.6H100.4V40.1H124.6V38.6Z" fill="#0140C2"/>
<path d="M128.2 40.1H79.4V42.7H128.2V40.1Z" fill="#6CAEE3"/>
<path d="M102.6 40.1H79.4V70.4H102.6V40.1Z" fill="#A1CDF0"/>
<path d="M127.008 70.4722H128.208V40.1722H127.008V70.4722Z" fill="#A1CDF0"/>
<path d="M108.8 32.1C108.2 32.4 108 33.6 108.2 34.4C108.4 35.2 110.1 35.8 110.8 35.5C111.6 35.3 113.4 34.7 114.3 35.3C115.3 35.8 116.7 35.5 117.5 35.1C118.3 34.6 123.2 35.6 123.8 35.8C124.4 36 127.6 42 127.7 42.6C127.8 43.1 128 49.8 127.8 50.3C127.6 50.8 127.3 53.8 127.6 55C127.9 56.2 129.6 61.5 129.7 61.8C129.8 62.2 137 59.6 136.9 59.3C136.8 59 134.6 55.8 134.6 55.8C134.6 55.8 136.1 57.9 136.5 57.7C136.9 57.5 138.8 56 138.8 56L132.8 49.5C132.8 49.5 131.2 36 130.3 34.8C129.4 33.6 127.6 32.2 127.1 32.3C126.6 32.4 121.5 32.8 121.5 32.8C121.5 32.8 118 31.7 116.8 31.9C115.7 31.9 109.2 31.8 108.8 32.1Z" fill="#D92C09"/>
<path d="M123.1 32.5C123.2 32.5 123.4 32.4 123.3 32.3C123.3 32.2 123 32.3 123 32.3C122.7 32.3 122.5 32.2 122.3 32.1C122.2 32 122 32 121.9 31.9C121.8 31.8 121.6 31.7 121.5 31.6C121.2 31.4 120.9 31.2 120.5 31.2C119.9 31 119.1 30.8 118.6 31.1C118.3 31.2 118.1 31.4 117.8 31.5C117.7 31.6 117.3 31.7 117.2 31.8C117.1 32 117.8 31.9 117.9 31.9C118 31.9 118.2 31.9 118.3 31.8C118.4 31.8 118.6 31.8 118.7 31.8C118.6 31.9 118.5 32 118.4 32.1C118.2 32.3 118 32.4 117.7 32.6C117.4 32.8 116.9 33.2 117 33.6C117 33.8 117.2 33.8 117.3 33.8C117.2 33.9 117.3 34 117.4 34C117.5 34.1 117.7 33.9 117.8 34C117.9 34 117.9 34.1 118 34.2C118.2 34.3 118.5 34.1 118.7 34C119 33.9 119.2 33.7 119.5 33.6C119.8 33.5 120.2 33.3 120.5 33.2C120.1 33.3 119.7 33.6 119.4 33.8C119.2 34 118.8 34.2 119.3 34.3C120.2 34.4 121 33.6 121.7 33.2C122 33 122.2 32.9 122.5 32.7C122.7 32.6 122.9 32.5 123.1 32.4C122.9 32.4 122 32.5 122 32.3L123.1 32.5Z" fill="#F7A98F"/>
<path d="M114.6 28.6C113.5 28.4 112.3 29.7 112.3 30.7C112.3 31 112.3 31.2 112.5 31.5C112.7 31.7 112.8 31.6 113 31.7C113.4 31.8 113.5 32.3 113.7 32.6C113.7 32.7 113.9 33 114 33C114.2 33 114.2 32.7 114.2 32.5C114.2 32 114.1 31.5 113.8 31.1C114.1 31.3 114.4 31.7 114.5 32.1C114.6 32.3 114.7 33 115 32.9C115.3 32.7 115.1 32 115 31.8C114.9 31.4 114.6 31.1 114.4 30.7C114.7 30.8 114.9 31.3 115 31.6C115.1 31.9 115 32.3 115.1 32.6C115.4 33.4 115.8 32.2 115.8 32C115.8 31.5 115.7 31.1 115.6 30.6C116 31 116.3 31.6 116.5 32.1C116.5 32.2 116.6 32.6 116.8 32.7C116.9 32.7 117.1 32.4 117.1 32.3C117.2 32.1 117 31.8 117 31.6C116.9 31.1 116.7 30.7 116.5 30.3C116.1 29.5 115.3 28.8 114.6 28.6Z" fill="#F7A98F"/>
<path d="M111 29C112.4 28.2 114 28.6 115.4 29.1C115.5 29.2 115.6 28.9 115.5 28.9C114.1 28.3 112.4 27.9 111 28.8C110.8 28.9 110.9 29.1 111 29Z" fill="#7C4415"/>
<path d="M112.4 29.5C112.2 30 112 30.6 112.2 31.1C112.4 31.5 112.7 31.8 113.1 32C113.2 32.1 113.3 31.9 113.2 31.8C112.8 31.6 112.5 31.3 112.4 30.9C112.3 30.4 112.5 29.9 112.6 29.5C112.7 29.4 112.5 29.3 112.4 29.5Z" fill="#7C4415"/>
<path d="M114.5 30.6C114.7 30.9 114.8 31.3 114.9 31.7C115 32 115 32.2 115.1 32.5C115.2 32.7 115.4 32.9 115.6 32.7C115.9 32.4 116 31.8 116 31.4C116 30.9 115.8 30.4 115.5 30C115.4 29.9 115.2 30 115.3 30.1C115.5 30.5 115.7 30.9 115.7 31.3C115.7 31.6 115.8 32.3 115.4 32.4C115.3 32.5 115.2 32.5 115.2 32.2C115.2 32.1 115.2 32 115.1 31.9C115.1 31.7 115 31.5 115 31.3C114.9 31 114.8 30.6 114.6 30.3C114.7 30.4 114.5 30.5 114.5 30.6Z" fill="#7C4415"/>
<path d="M113.8 31.3C114.4 31.5 114.4 32.4 114.7 32.8C114.9 33.1 115.1 32.9 115.2 32.6C115.3 32.5 115 32.4 115 32.5C114.9 32.8 114.7 32.4 114.7 32.3C114.6 32.1 114.6 32 114.5 31.8C114.4 31.5 114.2 31.2 113.9 31.1C113.8 31 113.6 31.2 113.8 31.3Z" fill="#7C4415"/>
<path d="M119.4 32.9C119.2 33 117.4 33.8 118 34.3C118.3 34.5 118.8 34.2 119 34.1C119.6 33.8 120.1 33.5 120.7 33.3C120.8 33.2 120.7 33 120.6 33.1C120 33.4 119.4 33.7 118.8 34C118.7 34.1 118.1 34.4 118.5 33.9C118.6 33.8 118.7 33.7 118.8 33.7C119.1 33.5 119.4 33.4 119.6 33.2C119.6 33 119.5 32.8 119.4 32.9Z" fill="#7C4415"/>
<path d="M118.9 32.4C118.6 32.6 118.3 32.8 118.1 33C117.9 33.2 117.6 33.4 117.4 33.7C117.3 33.9 117.3 34 117.5 34.2C117.7 34.3 117.9 34.2 118.1 34.1C118.2 34 118.1 33.8 118 33.9C117.9 33.9 117.9 34 117.8 34C117.8 33.9 117.7 33.8 117.7 33.7C117.7 33.7 117.8 33.6 117.9 33.5C118 33.4 118.1 33.3 118.3 33.2C118.6 33 118.8 32.8 119.1 32.6C119.1 32.5 119 32.3 118.9 32.4Z" fill="#7C4415"/>
<path d="M118.9 32C119.1 31.9 119.2 31.8 119.4 31.7C119.5 31.6 119.4 31.4 119.3 31.5C119.1 31.6 118.9 31.7 118.7 31.8C118.6 31.9 118.8 32 118.9 32Z" fill="#7C4415"/>
<path d="M120.1 33.2C119.9 33.4 119.6 33.6 119.4 33.9C119.3 34 119.2 34.1 119.2 34.3C119.3 34.6 119.9 34.4 120.1 34.3C121.2 33.9 122.1 33.2 123.2 32.7C123.3 32.6 123.2 32.4 123.1 32.5C122.4 32.9 121.7 33.3 121 33.7C120.7 33.9 120.3 34.1 119.9 34.2C119.8 34.2 119.6 34.3 119.6 34.2C119.6 34.2 119.8 34 119.9 33.9C120.1 33.7 120.2 33.6 120.4 33.4C120.4 33.2 120.2 33.1 120.1 33.2Z" fill="#7C4415"/>
<path d="M103 24.5H102V33.7H103V24.5Z" fill="#A1CDF0"/>
<path d="M100.9 22.3C103.6 22.3 106.2 22.3 108.9 22.3C113.1 22.3 117.3 22.3 121.5 22.3C122.5 22.3 123.4 22.3 124.4 22.3C124.6 22.3 124.6 22.1 124.4 22.1C121.7 22.1 119.1 22.1 116.4 22.1C112.2 22.1 108 22.1 103.8 22.1C102.8 22.1 101.9 22.1 100.9 22.1C100.7 22.1 100.7 22.3 100.9 22.3Z" fill="#A1CDF0"/>
<path d="M108.9 26C108.5 26.2 108.1 26.5 107.7 26.8C107.2 27.2 106.6 27.7 106.5 28.3C106.4 28.9 106.4 29.5 106.4 30.1C106.4 30.9 106.4 31.6 106.4 32.4C106.4 32.8 106.4 33.3 106.4 33.7C106.4 33.8 106.5 33.8 106.5 33.8C107.1 33.8 107.8 33.8 108.4 33.8C108.6 33.8 108.6 33.6 108.4 33.6C107.8 33.6 107.1 33.6 106.5 33.6L106.6 33.7C106.6 32.3 106.5 30.9 106.6 29.5C106.6 29.2 106.6 28.8 106.6 28.5C106.7 28 107 27.7 107.3 27.4C107.8 26.9 108.3 26.6 108.9 26.2C109.2 26.1 109.1 25.9 108.9 26Z" fill="#A1CDF0"/>
<path d="M117.6 28.7L117.9 32.5L118.2 28.6H117.7L117.6 28.7Z" fill="white"/>
<path d="M124.7 28H116.7V28.9H124.7V28Z" fill="#A1CDF0"/>
<path d="M92.2 37.6C90.2 36.7 88 37.7 85.9 37.4C83.6 37.1 82.3 35.8 79.9 37.1C78.7 37.7 76.7 39.2 76.7 40.7C76.8 42 77.5 43.1 77.7 44.4C77.9 46 77.3 47.7 77 49.3C76.7 51.2 76.3 53.1 76.6 55C76.8 56.3 77.3 57.5 77.5 58.8C77.7 59.9 77.4 61.3 78.5 62C79 62.3 80 62.5 80.6 62.6C81.9 62.9 84.8 62.8 85.7 61.7C86.7 60.4 85.5 57.9 85.9 56.3C86.4 54.3 86.3 51.2 87.4 49.5C88.8 47.4 91.8 48.3 92.8 45.8C93.4 44.3 93.4 42.6 94.9 41.7C96 41 97.8 41.2 98.7 40.5C99.7 39.7 98.6 39.7 97.6 39.4C95.8 38.7 93.5 38.9 92.2 37.6Z" fill="#F9D275"/>
<path d="M84.4 35.2C83.8 35.9 83.1 36.6 83.7 37.4C84.3 38.1 86.2 38.4 87 38.7C88 39.1 89 39.8 90 40.1C91.5 40.5 92.6 39.6 93.9 39.2C95.5 38.7 98.8 39.7 98 36.8C97.6 35.3 96.5 35.7 95.6 34.8C94.7 33.9 95.6 32.3 94.2 31.7C92.3 30.9 89.1 33 87.3 33.6C86.6 33.9 85.1 34.3 84.4 35.2Z" fill="white"/>
<path d="M92.9 32.7C91.7 32.1 89.4 32.8 90.2 30.6C90.8 29 92.4 28.6 93.3 27.3C94.1 26.2 94.5 23.4 96.6 24.3C97.9 24.8 99 26.5 99.2 27.7C99.4 28.6 99.7 29.2 99.1 30C98.5 30.8 97.7 30.5 96.9 30.9C94.8 31.8 98.5 33.2 96.5 34C95.7 34.3 94.8 33.7 94.1 34.2C93.3 34.7 93.8 35.8 93.2 36.4C92.7 37 91.8 36.7 91.1 37C90.3 37.4 90.2 37.9 90 38.6C89.7 39.4 89.8 39.5 88.9 40.2C87.8 41.1 87 41.2 87.3 42.8C87.5 44.2 88.1 44.7 89.1 45.5C90.1 46.3 90.5 46.6 90.3 47.9C90.1 49.2 89.5 50.2 89.1 51.4C88.8 52.4 89.3 53.4 89.2 54.5C89.1 56.1 88.4 55.5 87.1 55.9C87.6 54.6 87.1 53.5 87.2 52.2C87.3 51.1 88.2 50.4 88.3 49.3C88.5 47.9 87.6 47.2 86.6 46.3C85.3 45.1 85.8 43.3 86.4 41.7C86.8 40.3 86.9 40 87.9 39.2C88.9 38.3 88.7 37.1 89.6 36.3C90.2 35.7 91.3 35.5 92 34.8C92.5 34.2 92.8 33.1 92.9 32.7Z" fill="#F7931E"/>
<path d="M4.8 3.7C10.3 0.1 18.1 0 19.6 0C21.1 0 29 0.1 34.5 3.7C40.6 7.7 39.1 14.7 39.1 14.7V70H19.9H19.4H0.200003V14.7C0.200003 14.7 -1.3 7.8 4.8 3.7Z" fill="#89BEE9"/>
<path d="M9.4 3.7C14.9 0.1 22.8 0 24.2 0C25.7 0 33.6 0.1 39.1 3.7C45.2 7.7 43.7 14.7 43.7 14.7V70H24.5H24H4.8V14.7C4.8 14.7 3.3 7.8 9.4 3.7Z" fill="#A1CDF0"/>
<path d="M12.1 7.2C16.6 5.8 23 5.8 24.2 5.8C25.4 5.8 31.8 5.8 36.3 7.2C41.3 8.7 40.1 11.2 40.1 11.2V31.3H24.4H24H8.4V11.1C8.4 11.1 7.2 8.6 12.1 7.2Z" fill="#6CAEE3"/>
<path d="M36.4 65C33.4 66.1 30.1 66.5 27 66.7C25.2 66.8 23.4 66.8 21.6 66.7C18.4 66.5 15.2 66.2 12.2 65C10.3 64.2 8.1 62.8 8.2 60.4C8.2 60.2 8.2 59.9 8.3 59.7C8.3 59.6 8.3 59.6 8.3 59.6C8.3 59.4 8.3 59.1 8.3 58.8C8.3 57.5 8.3 56.1 8.3 54.8C8.3 50.5 8.3 46.3 8.3 42C8.3 39.2 8.2 36.3 8.3 33.5V33.4C8.3 33.3 8.4 33.3 8.4 33.3C10.2 33.3 12 33.3 13.8 33.3C16.6 33.3 19.4 33.3 22.3 33.3C23.4 33.3 24.5 33.3 25.5 33.3C28.2 33.3 30.9 33.3 33.6 33.3C35 33.3 36.4 33.3 37.7 33.3C38.5 33.3 39.2 33.3 40 33.3H40.1C40.2 33.3 40.2 33.4 40.2 33.4C40.2 34.7 40.2 36 40.2 37.3C40.2 40.2 40.2 43 40.2 45.9C40.2 48.9 40.2 51.9 40.2 54.8C40.2 56.4 40.1 58 40.2 59.6C40.2 59.7 40.2 59.6 40.2 59.8C40.3 60.2 40.3 60.5 40.3 60.9C40.2 62.4 39.1 63.5 37.9 64.3C37.5 64.5 36.9 64.8 36.4 65C36.2 65.1 36.2 64.8 36.3 64.7C37.9 64.1 39.7 63 40 61.1C40.1 60.6 40 60.1 39.9 59.6C39.9 59.2 39.9 58.7 39.9 58.2C39.9 57.2 39.9 56.2 39.9 55.3C39.9 52.4 39.9 49.6 39.9 46.7C39.9 43.8 39.9 40.9 39.9 38C39.9 37 39.9 36 39.9 35C39.9 34.7 39.9 34.3 39.9 34C39.9 33.9 39.8 33.6 39.9 33.5C39.9 33.5 39.9 33.5 39.9 33.4L40 33.5C38.2 33.5 36.4 33.5 34.6 33.5C31.8 33.5 29 33.5 26.1 33.5C25 33.5 23.9 33.5 22.9 33.5C20.2 33.5 17.5 33.5 14.8 33.5C13.4 33.5 12 33.5 10.7 33.5C10.2 33.5 9.7 33.5 9.2 33.5C8.9 33.5 8.6 33.6 8.4 33.5H8.3L8.4 33.4C8.4 35.7 8.4 38 8.4 40.3C8.4 44.5 8.4 48.8 8.4 53C8.4 54.6 8.4 56.2 8.4 57.8C8.4 58.4 8.5 59 8.4 59.6C8.3 60 8.2 60.4 8.3 60.9C8.4 61.9 9.1 62.8 9.8 63.4C11.1 64.5 12.8 65 14.4 65.4C16 65.8 17.7 66 19.4 66.2C24.2 66.7 29.2 66.5 33.8 65.4C34.6 65.2 35.4 65 36.1 64.7C36.5 64.7 36.5 64.9 36.4 65Z" fill="#6CAEE3"/>
<path d="M46.3 11.4C46.3 11.4 51.9 11.4 52.1 11.7C52.3 12 52.1 13.4 52.1 13.4C52.1 13.4 52.8 14.4 52.4 14.8C52.1 15.1 51.4 16.5 51.2 16.4C50.9 16.3 47.8 14.2 47.8 14.2L46.3 11.4Z" fill="#F9D275"/>
<path d="M69.6 44.3C69.7 45.1 69.5 50.6 69.9 51.7C70.2 52.7 71.6 54.4 72.5 58.3C73.4 62.1 73.4 67.1 73.1 67.2C72.8 67.4 70.8 67.1 70.8 67.1C70.8 67.1 64.6 54.6 64.2 52.6C63.7 50.6 63 44.3 63 44.3L69.6 44.1V44.3V44.3Z" fill="#F7A98F"/>
<path d="M62.6 44.3C62.6 44.3 60.3 52 60.4 52.4C60.5 52.8 61.2 56.9 60.6 59.5C60.1 62.1 59.3 66.2 59 66.3C58.8 66.4 56.4 66.2 56.4 66.2C56.4 66.2 55 54.6 55.1 51.6C55.3 48.6 56.5 43.5 56.6 43.2C56.8 42.8 62.6 44.3 62.6 44.3Z" fill="#F7A98F"/>
<path d="M67.2 31.7C67.2 31.7 69.7 37.6 69.9 38.8C70.1 40 70.2 49.4 70.2 49.6C70.1 49.8 66.1 51.6 62.6 50.2L62.4 45.7L61.6 50.3C61.6 50.3 57.1 51.3 54.5 48.6C54.5 48.6 58.3 37 58.3 36.7C58.3 36.4 59.4 30.7 59.4 30.7L67.2 31.7Z" fill="#016FC2"/>
<path d="M65.3 20.1C66.7 19.9 68 19.5 68.7 23.4C69.2 26.2 69.7 30.5 69.6 31C69.5 31.5 67.3 32.3 67.3 32.3C67.3 32.3 65.6 32.7 62.8 32.5C60.1 32.3 59.5 30.9 59.5 30.9C59.5 30.9 57.6 29.3 58.2 25.1C58.7 20.9 59.7 20.9 59.7 20.9C59.7 20.9 62.8 19 63 19C63.3 19 65.3 20.1 65.3 20.1Z" fill="#A1CDF0"/>
<path d="M62.6 19.2C62.6 19.2 56.6 19.5 55.7 19.3C54.9 19.1 48.6 15.5 48.2 15.6C47.8 15.7 47.1 15.7 47.1 15.8C47.1 15.9 51.6 23.5 54.8 23.6C58.1 23.7 63.1 19 63.1 19L62.6 19.2Z" fill="#F7A98F"/>
<path d="M49.7 14.8C49.7 14.8 48.9 12.9 48.2 12.2C47.5 11.5 46.6 10.9 46.6 10.9L46.5 11.5C46.5 11.5 44.8 11.4 44.6 12C44.4 12.5 44.7 12.9 44.7 12.9C44.7 12.9 44.6 13.4 44.8 13.7C44.9 14 45.1 15.2 45.4 15.4C45.7 15.6 48.7 16 48.7 16L49.7 14.8Z" fill="#F7A98F"/>
<path d="M59.3 65.4C59.5 65.8 59.9 68.1 59.8 68.5C59.7 68.9 59.4 69.1 59.4 69.1L52.5 69.2C52.5 69.2 52 68.8 52 68.5C52 68.2 53.6 67.9 53.8 67.8C54 67.7 56.3 66.3 56.6 65.9C56.8 65.4 59.2 65.1 59.3 65.4Z" fill="#F7A98F"/>
<path d="M55.9 66.2C55.9 66.2 56.5 67.3 56.5 69.1H54.1C54.1 69.1 54.2 68.2 53.8 67.5C53.9 67.6 55.7 66.1 55.9 66.2Z" fill="#DC6501"/>
<path d="M73.1 65.4C73.3 65.8 73.7 68.1 73.6 68.5C73.5 68.9 73.2 69.1 73.2 69.1L66.3 69.2C66.3 69.2 65.8 68.8 65.8 68.5C65.8 68.2 67.4 67.9 67.6 67.8C67.8 67.7 70.1 66.3 70.4 65.9C70.6 65.5 73 65.2 73.1 65.4Z" fill="#F7A98F"/>
<path d="M69.7 66.3C69.7 66.3 70.3 67.4 70.3 69.2H68C68 69.2 68.1 68.3 67.7 67.6C67.7 67.6 69.5 66.2 69.7 66.3Z" fill="#DC6501"/>
<path d="M47 11.4C47 11.4 36.2 7.2 35 7C33.8 6.8 23.1 7.2 22 7.9C20.9 8.6 20.9 9.6 21.6 11.9C22.3 14.3 24.5 17 25.7 17C26.9 16.9 34.8 16.5 35.4 15.9C35.9 15.3 38.2 13.6 38.2 13.6C38.2 13.6 45.3 13.3 45.7 13.2C46 13 47 11.4 47 11.4Z" fill="#F9D275"/>
<path d="M68 24.7C67.9 24.9 67.7 27.4 67 27.7C66.3 28 64.9 25.3 64.9 25.3C64.9 25.3 55.7 24.8 54 23.5C52.3 22.2 47.7 15.5 47.7 15.5C47.7 15.5 49.2 14.5 49.5 14.6C49.8 14.7 56.9 20.2 57.2 20.2C57.5 20.3 66.8 19.6 67.5 20.7C68.3 21.7 68 24.7 68 24.7Z" fill="#F7A98F"/>
<path d="M59.7 69C59.9 69.3 59.9 70.4 59.9 70.4H51.9C51.9 70.4 52.3 69.2 52.5 69.2C52.8 69.1 59.7 69 59.7 69Z" fill="#DC6501"/>
<path d="M73.5 69C73.7 69.3 73.7 70.4 73.7 70.4H65.7C65.7 70.4 66.1 69.2 66.3 69.2C66.6 69.2 73.5 69 73.5 69Z" fill="#DC6501"/>
<path d="M40.2 38.1C39.1 38.1 38.1 38.1 37 38.1C34.5 38.1 31.9 38.1 29.4 38.1C26.3 38.1 23.3 38.1 20.2 38.1C17.6 38.1 14.9 38.1 12.3 38.1C11.4 38.1 10.6 38.1 9.7 38.1C9.3 38.1 8.8 38.2 8.4 38.1C8.4 38.1 8.4 38.1 8.3 38.1C8.1 38.1 8.1 37.8 8.3 37.8C9.4 37.8 10.4 37.8 11.5 37.8C14 37.8 16.6 37.8 19.1 37.8C22.2 37.8 25.2 37.8 28.3 37.8C30.9 37.8 33.6 37.8 36.2 37.8C37.1 37.8 37.9 37.8 38.8 37.8C39.2 37.8 39.7 37.7 40.1 37.8C40.1 37.8 40.1 37.8 40.2 37.8C40.4 37.8 40.4 38.1 40.2 38.1Z" fill="#6CAEE3"/>
<path d="M65.2 8.4C66.1 8.9 66.8 10.4 67 11.4C67.2 12.3 67 14.3 67.4 15C67.7 15.7 68.5 17.5 68.3 18C68.1 18.5 65.5 20.1 65.3 19.9C65 19.7 64.2 15.8 64.2 15.8C64.2 15.8 63 19.2 62.5 19.2C62 19.2 58.8 18.9 58.7 18.4C58.6 17.9 59.1 16 59 14.7C59 13.5 58 10.2 59.4 8.6C60.7 7.1 65.2 8.4 65.2 8.4Z" fill="#D92C09"/>
<path d="M64.8 14.4C64.8 14.4 65.5 19.4 65.5 20.5C65.5 20.9 61.5 20.8 61.5 20.8C61.5 20.8 62.2 18.6 62.1 17.9C62 17.1 64.8 14.4 64.8 14.4Z" fill="#F7A98F"/>
<path d="M64.5 13.3C64.5 13.3 65.3 12.3 65.8 12.5C66.3 12.7 66.1 14.3 65.8 14.8C65.5 15.2 65 15.4 65 15.4C65 15.4 64.6 17.1 64.4 17.4C64.2 17.7 61.7 18.6 61.4 18.4C61.1 18.2 59.7 17.5 59.5 14.7C59.3 11.9 61.9 10 61.9 10.3C61.8 10.7 62.2 11.9 62.3 12.1C62.4 12.3 64.3 13.6 64.5 13.3Z" fill="#F7A98F"/>
<path d="M62.3 13.8C62.3 14 62.6 14.2 62.8 14.1C63 14.1 63.2 13.8 63.1 13.6C63.1 13.4 62.8 13.2 62.6 13.3C62.4 13.4 62.2 13.6 62.3 13.8Z" fill="#001C31"/>
<path d="M59.6 13.8C59.6 14 59.9 14.2 60.1 14.1C60.3 14.1 60.5 13.8 60.4 13.6C60.4 13.4 60.1 13.2 59.9 13.3C59.7 13.4 59.5 13.6 59.6 13.8Z" fill="#001C31"/>
<path d="M60.5 16L61.9 16.3C61.9 16.3 61.8 17.2 60.9 16.9C60.6 16.8 60.5 16 60.5 16Z" fill="white"/>
<path d="M62.5 50C62.4 47.9 62.3 45.9 62.2 43.8C62.1 42.3 62.1 40.9 62 39.4C62 38.9 61.9 38.4 61.9 37.9C61.9 37.7 61.9 37.3 61.8 37.2C61.8 37.1 61.6 37 61.5 36.9C61.3 36.7 61.2 36.5 61 36.4C60.7 35.9 60.4 35.4 60.3 34.8C60.2 33.9 60.4 32.8 60.6 31.9C60.6 31.7 60.9 31.8 60.8 32C60.6 32.9 60.4 33.8 60.5 34.7C60.6 35.3 60.9 35.9 61.3 36.4C61.5 36.6 61.8 36.9 62 37.1C62.1 37.3 62.1 37.5 62.1 37.7C62.2 38.2 62.2 38.6 62.2 39.1C62.4 42 62.5 44.8 62.6 47.7C62.6 48.5 62.7 49.3 62.7 50C62.7 50.2 62.5 50.2 62.5 50Z" fill="#6CAEE3"/>
<path d="M66.2 20.1C63.3 20.2 60.3 20.3 57.4 20.3C57.2 20.3 57.2 20.3 57 20.2C56.7 20 56.3 19.7 56 19.5C55.9 19.4 56 19.2 56.1 19.3C56.4 19.5 56.7 19.7 57 19.9C57.1 20 57.1 20 57.2 20.1C57.2 20.1 57.3 20.2 57.2 20.1H57.3C57.9 20.1 58.5 20.1 59 20.1C60.9 20.1 62.8 20 64.6 20C65.1 20 65.6 20 66.1 20C66.3 19.9 66.3 20.1 66.2 20.1Z" fill="#7C4415"/>
<path d="M64.9 15.4C64.5 16.1 64.4 16.9 63.9 17.5C63.3 18.1 62.3 18.4 61.5 18.5C61.3 18.5 61.3 18.3 61.5 18.3C62.3 18.2 63.4 17.9 63.9 17.2C64.3 16.7 64.4 16 64.7 15.4C64.8 15.2 65 15.3 64.9 15.4Z" fill="#7C4415"/>
<path d="M47.2 15.7C47.6 15.8 48.1 15.8 48.4 16.1C48.8 16.6 49.1 17 49.5 17.5C50.7 19 51.8 20.4 53 21.9C53.4 22.4 53.7 22.8 54.1 23.3C54.2 23.4 54 23.6 53.9 23.5C53 22.5 52.2 21.4 51.3 20.3C50.3 19 49.3 17.8 48.3 16.5C48.2 16.4 48.1 16.3 48 16.2C48.1 16.3 48 16.2 47.9 16.2C47.8 16.2 47.7 16.2 47.6 16.1C47.4 16.1 47.2 16 47.1 16C47 15.9 47.1 15.7 47.2 15.7Z" fill="#7C4415"/>
<path d="M66.8 24.9C66.2 25.1 65.6 25.3 65 25.3C64.8 25.3 64.8 25 65 25.1C65.6 25.1 66.2 24.9 66.7 24.7C66.8 24.6 66.9 24.9 66.8 24.9Z" fill="#7C4415"/>
<path d="M45.8 13.8C45.3 14 44.6 14 44.4 13.4C44.3 13.3 44.6 13.2 44.6 13.3C44.8 13.8 45.3 13.7 45.7 13.6C45.9 13.5 46 13.7 45.8 13.8Z" fill="#7C4415"/>
<path d="M45.9 14.4C45.6 14.5 45.2 14.6 44.9 14.4C44.6 14.2 44.5 13.9 44.5 13.6C44.5 13.4 44.8 13.4 44.7 13.6C44.7 13.9 44.8 14.2 45.1 14.3C45.3 14.4 45.6 14.3 45.8 14.2C46 14.2 46.1 14.4 45.9 14.4Z" fill="#7C4415"/>
<path d="M46.1 15C45.6 15.5 44.9 15.1 44.9 14.4C44.9 14.2 45.2 14.2 45.1 14.4C45.1 14.8 45.6 15.1 45.9 14.8C46 14.7 46.2 14.9 46.1 15Z" fill="#7C4415"/>
<path d="M57.2 20.2C57.2 20.5 57.1 20.8 56.9 21.1C56.8 21.2 56.6 21.1 56.7 21C56.9 20.8 56.9 20.5 56.9 20.2C56.9 20.1 57.2 20.1 57.2 20.2Z" fill="#7C4415"/>
<path d="M61 15.8C60.8 15.7 60.7 15.4 60.7 15.2C60.7 15 60.9 15 60.9 15.2C60.9 15.3 61 15.5 61.1 15.6C61.2 15.7 61.1 15.9 61 15.8Z" fill="#7C4415"/>
<path d="M63.3 13.6C63 13.4 62.6 13.4 62.2 13.6C62.1 13.7 61.9 13.5 62.1 13.4C62.5 13.1 63 13.1 63.4 13.4C63.5 13.5 63.4 13.7 63.3 13.6Z" fill="#001C31"/>
<path d="M60.4 13.6C60.1 13.4 59.8 13.4 59.5 13.5C59.4 13.6 59.2 13.4 59.4 13.3C59.8 13.1 60.2 13.1 60.5 13.4C60.7 13.4 60.5 13.7 60.4 13.6Z" fill="#001C31"/>
<path d="M63.4 12.8C63 12.6 62.5 12.6 62.1 12.7C61.9 12.7 61.9 12.5 62 12.5C62.5 12.4 63 12.4 63.5 12.6C63.6 12.6 63.6 12.9 63.4 12.8Z" fill="#001C31"/>
<path d="M60.5 12.8C60.2 12.7 59.7 12.7 59.5 12.9C59.4 13 59.2 12.8 59.3 12.7C59.6 12.4 60.2 12.4 60.6 12.5C60.7 12.6 60.7 12.8 60.5 12.8Z" fill="#001C31"/>
<path d="M72.9 65.9C73.1 66.3 72.9 66.7 72.6 67C72.5 67.1 72.3 66.9 72.5 66.8C72.7 66.6 72.9 66.3 72.7 66.1C72.7 65.9 72.9 65.8 72.9 65.9Z" fill="#7C4415"/>
<path d="M59.1 65.7C59.2 66.1 59.1 66.5 58.8 66.8C58.7 66.9 58.5 66.7 58.6 66.6C58.8 66.4 58.9 66.1 58.8 65.8C58.8 65.6 59 65.6 59.1 65.7Z" fill="#7C4415"/>
<path d="M61.8 37.4C61.2 37.2 60.5 36.9 59.9 36.6C59.8 36.5 59.9 36.3 60 36.4C60.6 36.7 61.2 36.9 61.8 37.1C62 37.2 61.9 37.5 61.8 37.4Z" fill="#6CAEE3"/>
<path d="M66.9 32.5C68.2 35.1 69 37.9 69.3 40.7C69.5 42.3 69.5 43.8 69.4 45.4C69.4 47 69.4 48.6 69.4 50.2C69.4 50.4 69.2 50.4 69.2 50.2C69.2 48.7 69.2 47.1 69.2 45.6C69.2 44.1 69.2 42.6 69.1 41C68.8 38.1 68 35.2 66.7 32.6C66.6 32.5 66.8 32.4 66.9 32.5Z" fill="#6CAEE3"/>
<path d="M67.7 35.2C66.6 34.7 65.8 33.9 65.3 32.8C65.2 32.7 65.4 32.5 65.5 32.7C66 33.7 66.8 34.6 67.8 35C68 35 67.9 35.2 67.7 35.2Z" fill="#6CAEE3"/>
<path d="M60.1 32.1C60 32.4 59.9 32.6 59.9 32.9C59.9 33.1 59.6 33 59.7 32.8C59.8 32.5 59.9 32.3 59.9 32C59.9 31.9 60.1 31.9 60.1 32.1Z" fill="#6CAEE3"/>
<path d="M67.2 27.7C67.4 28.6 67.5 29.6 67.5 30.5C67.4 31.2 67.3 32 66.8 32.5C66.7 32.6 66.5 32.4 66.6 32.3C67.1 31.7 67.2 30.9 67.3 30.1C67.3 29.3 67.2 28.5 67 27.7C66.9 27.7 67.2 27.6 67.2 27.7Z" fill="#6CAEE3"/>
<path d="M62.9 31.4C61.7 30.2 60.9 28.8 60.5 27.2C60.5 27 60.7 27 60.7 27.1C61.1 28.7 61.9 30.1 63.1 31.2C63.1 31.3 63 31.5 62.9 31.4Z" fill="#6CAEE3"/>
<path d="M73.5 69.2C71.1 69.3 68.7 69.3 66.4 69.4C66.2 69.4 66.2 69.2 66.4 69.2C68.8 69.1 71.2 69.1 73.5 69C73.6 68.9 73.6 69.2 73.5 69.2Z" fill="#7C4415"/>
<path d="M59.7 69.1C57.3 69.2 54.9 69.2 52.6 69.3C52.4 69.3 52.4 69.1 52.6 69.1C55 69 57.4 69 59.7 68.9C59.8 68.9 59.8 69.1 59.7 69.1Z" fill="#7C4415"/>
<path d="M65.5 8.7C64.7 8.5 63.9 8.5 63.1 8.7C62.5 8.9 61.8 9.4 61.8 10.2C61.8 10.4 61.5 10.4 61.6 10.2C61.6 9.4 62.2 8.9 62.8 8.6C63.7 8.2 64.6 8.3 65.5 8.5C65.7 8.5 65.6 8.7 65.5 8.7Z" fill="white"/>
<path d="M63 8.6C64.4 9.4 65.5 10.8 66 12.4C66.3 13.4 66.4 14.4 66.7 15.4C67 16.4 67.4 17.4 67.7 18.4C67.8 18.5 67.5 18.6 67.5 18.5C67.2 17.6 66.8 16.7 66.6 15.8C66.3 14.9 66.2 13.9 65.9 13C65.5 11.3 64.5 9.8 62.9 8.9C62.8 8.8 62.9 8.5 63 8.6Z" fill="white"/>
<path d="M63.9 8.4C64.6 9 65.2 9.6 65.8 10.3C66.4 11 66.7 11.9 66.9 12.8C67.1 13.7 67.2 14.7 67.4 15.6C67.5 16.1 67.6 16.6 67.8 17.1C67.9 17.4 68.2 17.7 68.2 18.1C68.2 18.3 68 18.3 68 18.1C68 17.7 67.7 17.3 67.5 17C67.3 16.6 67.2 16.2 67.1 15.8C66.9 14.9 66.8 14 66.6 13.1C66.4 12.2 66.1 11.4 65.6 10.6C65.1 9.9 64.4 9.2 63.7 8.6C63.7 8.5 63.8 8.3 63.9 8.4Z" fill="white"/>
<path d="M62.2 9.2C61.8 9 61.3 8.8 60.9 8.9C60.3 9 60 9.3 59.8 9.8C59.4 10.5 59.1 11.3 59 12.2C59 12.4 58.7 12.3 58.8 12.1C59 11.1 59.3 10 60 9.2C60.6 8.5 61.7 8.6 62.4 9.1C62.4 9.1 62.3 9.3 62.2 9.2Z" fill="white"/>
<path d="M20.7 35.8C23.1 35.8 25.4 35.8 27.8 35.8L27.7 35.9C27.7 35.6 27.7 35.3 27.7 35L27.8 35.1C25.4 35.1 23.1 35.1 20.7 35.1L20.8 35C20.8 35.3 20.8 35.6 20.8 35.9C20.8 36.1 20.5 36.1 20.5 35.9C20.5 35.6 20.5 35.3 20.5 35C20.5 34.9 20.6 34.9 20.6 34.9C23 34.9 25.3 34.9 27.7 34.9C27.8 34.9 27.8 35 27.8 35C27.8 35.3 27.8 35.6 27.8 35.9C27.8 36 27.7 36 27.7 36C25.3 36 23 36 20.6 36C20.5 36 20.5 35.8 20.7 35.8Z" fill="#6CAEE3"/>
<path d="M40.1 31.4L8.4 31.3V28C9.4 26 10.7 23.6 12.5 22.2C13.5 21.5 14.6 21.1 15.7 20.7C16.7 20.4 17.5 19.8 18.5 19.5C20.5 18.7 22 18.8 24 19.5C25.9 20.2 27.7 20.4 29.6 20.8C30.7 21 31.4 21.6 32.2 22.3C33.6 23.4 33.6 26.1 35.3 26.6C36.3 26.9 37.3 26.7 38.3 27.1C38.8 27.3 39.6 28.3 39.9 28.3C39.9 29.2 40.4 30.6 40.1 31.4Z" fill="#016FC2"/>
<path d="M19.8 18.3C21.1 18.5 23.4 18.6 24.2 19.9C25 21.1 23.4 22.1 22.6 22.7C21.8 23.2 19.4 24.4 19.3 25.4C19.2 26.5 21.2 26.9 20.3 28.1C19.4 29.3 16.8 29.8 15.4 29.9C13.2 30.1 14.1 28.6 13 27.4C12.1 26.5 10.5 27.2 10.2 25.7C10 24.6 10.1 22.8 10.9 22.1C11.4 21.7 12 21.5 12.5 21C13 20.5 13.5 19.9 14.1 19.6C15.1 19.1 16.3 19 17.3 18.5C18 18.4 19.7 17.9 19.8 18.3Z" fill="#A1CDF0"/>
<path d="M27.7 19.6C30 20.3 32.7 21.1 34.2 23.1C34.4 23.4 34.8 23.9 34.8 24.3C34.8 24.7 34.5 24.9 34.5 25.1C34.5 26.2 36 26.4 36.4 27.4C37 29 34.2 29.2 33.2 29.3C31.1 29.6 29 29.7 27 28.9C25.7 28.4 25.7 27 24.3 26.7C22.3 26.1 18.3 25.6 18.2 22.8C18.1 21 19.8 21 21.1 21C21.7 21 23.5 21.5 23.6 22.4C23.7 23.3 22.5 22.9 21.9 23C21.8 24.3 26.2 24.4 27 24.6C28.1 24.9 28.8 25.5 29.5 26.3C30 26.9 30 27.1 30.8 27.1C33.6 27.2 30.4 25.2 30.3 24.1C30.2 23.4 30.8 23.4 30.4 22.7C29.9 21.7 27.8 21.3 26.8 21C24.9 20.6 23.4 19.6 21.7 18.8C22.9 18.6 24.6 19.1 25.8 19.3C26.5 19.5 27.2 19.5 27.7 19.6Z" fill="#2ACC98"/>
<path d="M16.8 16.3C18.6 16.3 22.3 16 23 18.2C23.3 19.2 22.6 19.2 21.8 19.4C20.2 19.8 18.7 19.9 17.2 20.5C15.8 21.1 15.7 22.6 14.5 23.4C13.4 24.1 12.3 24.3 11.4 25.2C10.9 25.7 9.9 27.5 9.3 26C9 25.4 9.8 24 9.9 23.4C10.2 22.3 10.7 21.2 10.7 20C10.7 19.2 10.4 18.1 11 17.5C11.7 16.6 13 17.3 14 17.2C14.8 17.2 15.7 16.2 16.8 16.3Z" fill="#D92C09"/>
<path d="M30.8 23.8C30.8 23.7 30.8 23.6 30.8 23.5C31 22.3 31 21.9 30 21C28.9 20 27.9 18.6 26.1 18.6C24.7 18.6 24.7 20.3 24.4 21.4C23.9 23.3 26.8 23.3 28.1 24.1C29.4 24.8 30.6 27.2 32.1 26.7C32.2 26.2 32.5 25.6 32.1 25.1C31.6 24.2 30.9 24.6 30.8 23.8Z" fill="#D92C09"/>
</g>
<defs>
<clipPath id="clip0_2_2">
<rect width="174.2" height="70.4" fill="white"/>
</clipPath>
</defs>
</svg>
